<?xml version="1.0" standalone="no"?>
<!DOCTYPE svg PUBLIC "-//W3C//DTD SVG 1.1//EN" "http://www.w3.org/Graphics/SVG/1.1/DTD/svg11.dtd" >
<svg>
<metadata>
Created by FontForge 20120731 at Thu Feb  9 07:44:46 2017
 By www-data
</metadata>
<defs>
<font id="AppleTsukuARdGothic-Regular-AlphaNum" horiz-adv-x="1000" vert-adv-y="1000" >
  <font-face 
    font-family="(null)"
    font-weight="400"
    font-stretch="normal"
    units-per-em="1000"
    panose-1="2 0 5 3 0 0 0 0 0 0"
    ascent="800"
    descent="-200"
    x-height="467"
    cap-height="738"
    bbox="30 -89 970 849"
    underline-thickness="50"
    underline-position="-100"
    stemh="53"
    unicode-range="U+2160-325B"
  />
    <missing-glyph />
    <glyph glyph-name="Japan1.7555" unicode="&#x2460;" 
d="M970 380c0 -259 -211 -469 -470 -469s-470 210 -470 469s211 469 470 469s470 -210 470 -469zM931 380c0 238 -193 432 -431 432s-430 -194 -430 -432s192 -431 430 -431s431 193 431 431zM542 92v-1c0 -20 -17 -31 -34 -31c-16 0 -32 10 -32 29v1c1 83 4 281 4 398
c0 118 0 121 -47 121c-6 0 -12 -1 -20 -1h-3c-20 0 -30 15 -30 31c0 31 24 31 74 31c53 0 86 -22 88 -71c1 -12 1 -32 1 -55c0 -74 -2 -195 -2 -313c0 -48 0 -95 1 -139z" />
    <glyph glyph-name="Japan1.7556" unicode="&#x2461;" 
d="M970 380c0 -259 -211 -469 -470 -469s-470 210 -470 469s211 469 470 469s470 -210 470 -469zM931 380c0 238 -193 432 -431 432s-430 -194 -430 -432s192 -431 430 -431s431 193 431 431zM656 86h-1c-27 1 -90 1 -153 1s-127 0 -155 -1h-2c-37 0 -54 17 -54 39
c0 14 7 31 22 46c67 71 174 160 256 250c38 41 54 82 54 117c0 58 -43 102 -118 102c-51 0 -106 -23 -127 -81c-6 -17 -19 -24 -31 -24c-16 0 -31 12 -31 30c0 36 64 129 193 129c117 0 179 -73 179 -154c0 -45 -20 -97 -67 -149c-78 -85 -171 -156 -252 -239
c-2 -2 -3 -4 -3 -5c0 -3 3 -5 7 -5c89 0 213 5 282 5c25 0 37 -15 37 -30s-13 -31 -36 -31z" />
    <glyph glyph-name="Japan1.7557" unicode="&#x2462;" 
d="M970 380c0 -259 -211 -469 -470 -469s-470 210 -470 469s211 469 470 469s470 -210 470 -469zM931 380c0 238 -193 432 -431 432s-430 -194 -430 -432s192 -431 430 -431s431 193 431 431zM478 384c-19 0 -29 15 -29 29c0 15 9 29 28 29h32c66 2 106 46 106 101
s-39 91 -109 91c-62 0 -96 -29 -116 -55c-7 -10 -15 -13 -24 -13c-15 0 -29 14 -29 31c0 34 77 92 172 92c167 0 167 -136 167 -144c0 -54 -35 -113 -86 -129c83 -24 121 -87 121 -160c0 -110 -92 -188 -216 -188c-139 0 -204 87 -204 114c0 18 16 30 33 30
c10 0 20 -4 27 -14c35 -50 78 -72 148 -72c86 0 149 58 149 131c0 56 -29 127 -142 127h-28z" />
    <glyph glyph-name="Japan1.7558" unicode="&#x2463;" 
d="M970 380c0 -259 -211 -469 -470 -469s-470 210 -470 469s211 469 470 469s470 -210 470 -469zM931 380c0 238 -193 432 -431 432s-430 -194 -430 -432s192 -431 430 -431s431 193 431 431zM585 103v-1c0 -19 -15 -29 -29 -29c-16 0 -31 10 -31 30c0 29 0 59 1 112
c-84 -1 -201 -2 -210 -2c-48 0 -72 21 -72 52c0 16 8 36 23 56c54 72 205 266 269 350c8 10 17 14 26 14c16 0 31 -13 31 -30c0 -7 -3 -15 -9 -23c-39 -47 -215 -269 -265 -334c-6 -7 -8 -14 -8 -19c0 -13 14 -13 43 -13c36 0 105 1 173 2v61c0 43 0 73 -1 96v1
c0 20 15 31 30 31c14 0 28 -10 28 -32c0 -39 0 -75 -1 -156c53 1 75 2 79 2h1c18 0 29 -14 29 -27s-10 -27 -31 -27c-10 0 -33 -1 -78 -1z" />
    <glyph glyph-name="Japan1.7559" unicode="&#x2464;" 
d="M970 380c0 -259 -211 -469 -470 -469s-470 210 -470 469s211 469 470 469s470 -210 470 -469zM931 380c0 238 -193 432 -431 432s-430 -194 -430 -432s192 -431 430 -431s431 193 431 431zM708 269c0 -102 -83 -200 -228 -200c-114 0 -178 60 -178 86c0 17 15 31 31 31
c7 0 14 -3 21 -10c33 -35 81 -50 127 -50c90 0 167 55 167 142c0 63 -45 129 -151 129c-32 0 -64 -6 -91 -18c-18 -8 -28 -8 -32 -8c-24 0 -43 12 -43 41c0 19 23 182 27 206c8 39 32 60 81 60h4c12 0 29 -1 195 -1c18 0 28 -15 28 -29s-9 -27 -27 -27c-25 0 -164 1 -191 1
c-25 0 -32 -8 -36 -25c-7 -26 -21 -146 -21 -156c0 -5 2 -8 6 -8c2 0 5 1 8 2c28 10 62 16 97 16c141 0 206 -92 206 -182z" />
    <glyph glyph-name="Japan1.7560" unicode="&#x2465;" 
d="M970 380c0 -259 -211 -469 -470 -469s-470 210 -470 469s211 469 470 469s470 -210 470 -469zM931 380c0 238 -193 432 -431 432s-430 -194 -430 -432s192 -431 430 -431s431 193 431 431zM688 266c0 -124 -102 -186 -205 -186c-130 0 -206 93 -206 200
c0 209 236 417 278 417c18 0 31 -16 31 -32c0 -9 -5 -18 -14 -24c-143 -90 -207 -223 -207 -233c0 -2 1 -3 3 -3c1 0 2 0 3 1c38 24 82 35 125 35c128 0 192 -86 192 -175zM630 265c0 91 -78 126 -146 126c-75 0 -150 -43 -150 -125s69 -132 148 -132c89 0 148 60 148 131z
" />
    <glyph glyph-name="Japan1.7561" unicode="&#x2466;" 
d="M970 380c0 -259 -211 -469 -470 -469s-470 210 -470 469s211 469 470 469s470 -210 470 -469zM931 380c0 238 -193 432 -431 432s-430 -194 -430 -432s192 -431 430 -431s431 193 431 431zM360 583h-1c-20 0 -31 14 -31 28s10 28 31 29h274c52 0 80 -25 80 -60
c0 -15 -4 -31 -14 -48c-84 -147 -203 -290 -249 -464c-6 -21 -21 -31 -36 -31s-29 11 -29 30c0 5 1 9 2 14c47 171 171 314 254 468c5 8 7 15 7 20c0 12 -10 17 -27 17c-7 0 -215 -2 -261 -3z" />
    <glyph glyph-name="Japan1.7562" unicode="&#x2467;" 
d="M970 380c0 -259 -211 -469 -470 -469s-470 210 -470 469s211 469 470 469s470 -210 470 -469zM931 380c0 238 -193 432 -431 432s-430 -194 -430 -432s192 -431 430 -431s431 193 431 431zM598 412c47 -16 119 -67 119 -163c0 -115 -98 -181 -217 -181
c-122 0 -217 67 -217 181c0 58 40 132 118 162c-49 20 -85 70 -85 127c0 87 77 152 184 152c94 0 184 -49 184 -151c0 -54 -30 -104 -86 -127zM627 539c0 64 -56 102 -127 102c-81 0 -127 -51 -127 -104c0 -54 43 -101 124 -101c89 0 130 50 130 103zM659 248
c0 98 -90 136 -159 136c-99 0 -160 -64 -160 -135c0 -63 52 -128 160 -128c97 0 159 53 159 127z" />
    <glyph glyph-name="Japan1.7563" unicode="&#x2468;" 
d="M970 380c0 -259 -211 -469 -470 -469s-470 210 -470 469s211 469 470 469s470 -210 470 -469zM931 380c0 238 -193 432 -431 432s-430 -194 -430 -432s192 -431 430 -431s431 193 431 431zM431 54c-18 0 -31 14 -31 29c0 9 5 19 17 27c159 98 210 234 210 238
c0 2 -1 3 -3 3c-1 0 -3 0 -5 -2c-33 -28 -82 -43 -132 -43c-116 0 -191 75 -191 174c0 92 65 188 208 188c121 0 205 -77 205 -197c0 -218 -236 -417 -278 -417zM653 488c0 66 -53 127 -150 127c-74 0 -152 -40 -152 -129s76 -131 149 -131c60 0 153 36 153 133z" />
    <glyph glyph-name="Japan1.7564" unicode="&#x2469;" 
d="M970 380c0 -259 -211 -469 -470 -469s-470 210 -470 469s211 469 470 469s470 -210 470 -469zM931 380c0 238 -193 432 -431 432s-430 -194 -430 -432s192 -431 430 -431s431 193 431 431zM635 89c-87 0 -151 67 -162 191c-3 34 -5 66 -5 99c0 83 0 290 167 290
c166 0 166 -211 166 -297c0 -33 -2 -66 -6 -100c-14 -116 -77 -183 -160 -183zM635 142c104 0 110 148 110 243c0 82 -2 232 -110 232c-110 0 -111 -168 -111 -234c0 -209 58 -241 111 -241zM357 126v-1c0 -20 -15 -31 -30 -31c-14 0 -28 10 -28 29v1c1 79 3 269 3 376
c0 34 -1 60 -1 71c-1 23 -7 32 -39 32h-14c-21 0 -30 14 -30 28c0 32 33 32 43 32c42 0 93 -1 96 -67c1 -13 1 -34 1 -60c0 -72 -2 -185 -2 -294c0 -40 0 -79 1 -116z" />
    <glyph glyph-name="Japan1.7565" unicode="&#x246a;" 
d="M970 380c0 -259 -211 -469 -470 -469s-470 210 -470 469s211 469 470 469s470 -210 470 -469zM931 380c0 238 -193 432 -431 432s-430 -194 -430 -432s192 -431 430 -431s431 193 431 431zM712 112v-1c0 -20 -15 -30 -31 -30c-14 0 -29 9 -29 29v1c1 79 3 269 3 376
c0 34 -1 60 -1 71c-1 23 -7 31 -38 31h-15c-20 0 -30 13 -30 27c0 34 29 34 68 34c44 0 71 -24 73 -68c1 -13 1 -34 1 -60c0 -72 -2 -185 -2 -294c0 -40 0 -79 1 -116zM384 112v-1c0 -20 -15 -30 -31 -30c-14 0 -29 9 -29 29v1c1 79 3 269 3 376c0 34 -1 60 -1 71
c-1 23 -7 31 -38 31h-15c-21 0 -30 14 -30 28c0 33 28 33 67 33c44 0 72 -24 74 -68c1 -13 1 -34 1 -60c0 -72 -2 -185 -2 -294c0 -40 0 -79 1 -116z" />
    <glyph glyph-name="Japan1.7566" unicode="&#x246b;" 
d="M970 380c0 -259 -211 -469 -470 -469s-470 210 -470 469s211 469 470 469s470 -210 470 -469zM931 380c0 238 -193 432 -431 432s-430 -194 -430 -432s192 -431 430 -431s431 193 431 431zM753 100h-1c-21 1 -73 1 -124 1c-52 0 -103 0 -126 -1h-2c-30 0 -45 16 -45 37
c0 13 6 29 18 43c54 67 140 148 206 232c31 39 44 79 44 112c0 19 -4 93 -92 93c-41 0 -84 -22 -101 -76c-5 -15 -16 -22 -27 -22c-13 0 -26 11 -26 28s35 121 155 121c77 0 146 -50 146 -144c0 -43 -16 -92 -54 -141c-62 -79 -134 -143 -199 -220c-1 -2 -2 -3 -2 -5
s2 -4 6 -4c72 0 167 4 222 4c20 0 30 -15 30 -29c0 -15 -10 -29 -28 -29zM357 126v-1c0 -20 -15 -31 -30 -31c-14 0 -28 10 -28 29v1c1 79 3 269 3 376c0 34 -1 60 -1 71c-1 23 -7 32 -39 32h-14c-21 0 -30 14 -30 28c0 32 33 32 43 32c42 0 93 -1 96 -67c1 -13 1 -34 1 -60
c0 -72 -2 -185 -2 -294c0 -40 0 -79 1 -116z" />
    <glyph glyph-name="Japan1.7567" unicode="&#x246c;" 
d="M970 380c0 -259 -211 -469 -470 -469s-470 210 -470 469s211 469 470 469s470 -210 470 -469zM931 380c0 238 -193 432 -431 432s-430 -194 -430 -432s192 -431 430 -431s431 193 431 431zM623 383l-18 -1h-1c-18 0 -28 15 -28 29s9 28 28 28h26c52 2 83 42 83 92
c0 51 -30 84 -86 84c-43 0 -68 -17 -90 -50c-6 -9 -13 -12 -20 -12c-14 0 -28 13 -28 29c0 23 47 87 142 87c120 0 136 -100 136 -137c0 -49 -23 -94 -67 -117c61 -23 94 -78 94 -148c0 -113 -80 -178 -175 -178c-109 0 -166 78 -166 104c0 17 16 30 31 30c9 0 17 -4 22 -13
c28 -46 61 -67 116 -67c67 0 116 52 116 123c0 63 -33 117 -110 117h-5zM357 126v-1c0 -20 -15 -31 -30 -31c-14 0 -28 10 -28 29v1c1 79 3 269 3 376c0 34 -1 60 -1 71c-1 23 -7 32 -39 32h-14c-21 0 -30 14 -30 28c0 32 33 32 43 32c42 0 93 -1 96 -67c1 -13 1 -34 1 -60
c0 -72 -2 -185 -2 -294c0 -40 0 -79 1 -116z" />
    <glyph glyph-name="Japan1.7568" unicode="&#x246d;" 
d="M970 380c0 -259 -211 -469 -470 -469s-470 210 -470 469s211 469 470 469s470 -210 470 -469zM931 380c0 238 -193 432 -431 432s-430 -194 -430 -432s192 -431 430 -431s431 193 431 431zM733 121v-1c0 -19 -13 -29 -27 -29s-28 10 -28 30c0 26 1 54 1 101
c-67 -1 -160 -1 -167 -1c-39 0 -59 20 -59 48c0 16 6 35 19 55l215 328c6 9 14 13 23 13c14 0 28 -12 28 -29c0 -7 -2 -14 -8 -22c-31 -44 -172 -253 -212 -313c-5 -6 -6 -12 -6 -16c0 -12 7 -13 52 -13c30 0 72 1 115 2v55c0 39 0 67 -1 88v1c0 19 14 29 27 29
c14 0 27 -10 27 -31c0 -36 -1 -68 -1 -141l60 2h1c17 0 26 -13 26 -26s-9 -27 -28 -27c-8 0 -25 -1 -59 -1zM357 126v-1c0 -20 -15 -31 -30 -31c-14 0 -28 10 -28 29v1c1 79 3 269 3 376c0 34 -1 60 -1 71c-1 23 -7 32 -39 32h-14c-21 0 -30 14 -30 28c0 32 33 32 43 32
c42 0 93 -1 96 -67c1 -13 1 -34 1 -60c0 -72 -2 -185 -2 -294c0 -40 0 -79 1 -116z" />
    <glyph glyph-name="Japan1.7569" unicode="&#x246e;" 
d="M970 380c0 -259 -211 -469 -470 -469s-470 210 -470 469s211 469 470 469s470 -210 470 -469zM931 380c0 238 -193 432 -431 432s-430 -194 -430 -432s192 -431 430 -431s431 193 431 431zM620 85c-86 0 -155 50 -155 81c0 17 14 31 29 31c7 0 14 -3 20 -10
c27 -33 64 -48 101 -48c59 0 129 39 129 131c0 69 -48 119 -116 119c-25 0 -50 -7 -72 -18c-17 -9 -27 -9 -28 -9c-22 0 -38 13 -38 41c0 4 15 151 22 192c6 37 28 57 69 57h3c45 -1 112 -1 155 -1c18 0 28 -15 28 -29c0 -13 -9 -26 -28 -26c-20 0 -129 1 -151 1
c-18 0 -24 -7 -27 -22c-6 -31 -17 -140 -17 -141c0 -6 2 -10 6 -10c1 0 3 0 4 1c23 9 51 15 79 15c108 0 166 -81 166 -169c0 -89 -59 -186 -179 -186zM357 118v-1c0 -20 -15 -31 -30 -31c-14 0 -28 10 -28 29v1c1 79 3 269 3 376c0 34 -1 60 -1 71c-1 23 -7 32 -39 32h-14
c-21 0 -30 14 -30 28c0 33 28 33 67 33c44 0 70 -24 72 -68c1 -13 1 -34 1 -60c0 -72 -2 -185 -2 -294c0 -40 0 -79 1 -116z" />
    <glyph glyph-name="Japan1.7570" unicode="&#x246f;" 
d="M970 380c0 -259 -211 -469 -470 -469s-470 210 -470 469s211 469 470 469s470 -210 470 -469zM931 380c0 238 -193 432 -431 432s-430 -194 -430 -432s192 -431 430 -431s431 193 431 431zM635 93c-81 0 -166 58 -166 185c0 192 190 391 227 391c17 0 29 -14 29 -29
c0 -9 -4 -18 -14 -25c-101 -73 -159 -195 -159 -211c0 -1 0 -2 1 -2s3 1 5 3c27 18 58 26 89 26c95 0 156 -73 156 -163c0 -112 -80 -175 -168 -175zM636 145c53 0 114 39 114 122c0 70 -49 116 -113 116c-54 0 -115 -32 -115 -115c0 -75 52 -123 114 -123zM357 126v-1
c0 -20 -15 -31 -30 -31c-14 0 -28 10 -28 29v1c1 79 3 269 3 376c0 34 -1 60 -1 71c-1 23 -7 32 -39 32h-14c-21 0 -30 14 -30 28c0 32 33 32 43 32c42 0 93 -1 96 -67c1 -13 1 -34 1 -60c0 -72 -2 -185 -2 -294c0 -40 0 -79 1 -116z" />
    <glyph glyph-name="Japan1.7571" unicode="&#x2470;" 
d="M970 380c0 -259 -211 -469 -470 -469s-470 210 -470 469s211 469 470 469s470 -210 470 -469zM931 380c0 238 -193 432 -431 432s-430 -194 -430 -432s192 -431 430 -431s431 193 431 431zM525 573h-1c-19 0 -28 14 -28 28c0 29 25 29 54 29c56 0 179 -1 191 -1
c45 0 65 -25 65 -58c0 -14 -4 -30 -11 -45c-65 -134 -158 -271 -194 -430c-4 -19 -18 -28 -32 -28s-28 10 -28 30c0 3 1 8 2 12c38 158 142 301 201 434c3 8 5 14 5 18c0 10 -7 14 -21 14c-5 0 -167 -2 -203 -3zM367 97v-1c0 -20 -15 -30 -29 -30s-28 9 -28 29v1
c1 79 3 268 3 375c0 34 -1 60 -1 71c-1 23 -8 32 -40 32h-14c-21 0 -30 14 -30 28c0 33 28 33 67 33c44 0 70 -24 72 -68c1 -13 1 -34 1 -60c0 -72 -2 -185 -2 -294c0 -40 0 -79 1 -116z" />
    <glyph glyph-name="Japan1.7572" unicode="&#x2471;" 
d="M970 380c0 -259 -211 -469 -470 -469s-470 210 -470 469s211 469 470 469s470 -210 470 -469zM931 380c0 238 -193 432 -431 432s-430 -194 -430 -432s192 -431 430 -431s431 193 431 431zM719 410c68 -29 92 -97 92 -151c0 -108 -79 -170 -176 -170
c-98 0 -176 63 -176 170c0 104 82 145 92 150c-39 20 -65 66 -65 118c0 81 62 143 149 143c94 0 150 -63 150 -140c0 -50 -23 -97 -66 -120zM758 258c0 101 -79 126 -123 126c-69 0 -124 -51 -124 -127c0 -62 39 -117 124 -117c75 0 123 50 123 118zM357 126v-1
c0 -20 -15 -31 -30 -31c-14 0 -28 10 -28 29v1c1 79 3 269 3 376c0 34 -1 60 -1 71c-1 23 -7 32 -39 32h-14c-21 0 -30 14 -30 28c0 32 33 32 43 32c42 0 93 -1 96 -67c1 -13 1 -34 1 -60c0 -72 -2 -185 -2 -294c0 -40 0 -79 1 -116zM734 529c0 55 -42 93 -99 93
c-63 0 -99 -48 -99 -97c0 -50 33 -93 97 -93c58 0 101 33 101 97z" />
    <glyph glyph-name="Japan1.7573" unicode="&#x2472;" 
d="M970 380c0 -259 -211 -469 -470 -469s-470 210 -470 469s211 469 470 469s470 -210 470 -469zM931 380c0 238 -193 432 -431 432s-430 -194 -430 -432s192 -431 430 -431s431 193 431 431zM579 89c-16 0 -28 14 -28 29c0 10 5 19 15 26c89 57 165 193 165 213
c0 2 -1 3 -3 3c-1 0 -2 0 -4 -2c-27 -23 -64 -35 -102 -35c-85 0 -155 62 -155 161c0 86 56 179 170 179c101 0 169 -79 169 -188c0 -188 -184 -386 -227 -386zM632 370c73 0 117 58 117 122c0 55 -34 119 -113 119c-67 0 -115 -52 -115 -122c0 -73 50 -119 111 -119z
M357 121v-1c0 -20 -15 -31 -30 -31c-14 0 -28 10 -28 29v1c1 79 3 269 3 376c0 34 -1 60 -1 71c-1 23 -7 32 -39 32h-14c-21 0 -30 14 -30 28c0 33 28 33 67 33c44 0 70 -24 72 -68c1 -13 1 -34 1 -60c0 -72 -2 -185 -2 -294c0 -40 0 -79 1 -116z" />
    <glyph glyph-name="Japan1.7574" unicode="&#x2473;" 
d="M970 380c0 -259 -211 -469 -470 -469s-470 210 -470 469s211 469 470 469s470 -210 470 -469zM931 380c0 238 -193 432 -431 432s-430 -194 -430 -432s192 -431 430 -431s431 193 431 431zM669 90c-138 0 -140 193 -140 280c0 91 1 300 140 300c142 0 145 -194 145 -294
c0 -131 -16 -286 -145 -286zM454 99h-1c-18 1 -62 1 -106 1c-43 0 -87 0 -107 -1h-1c-26 0 -39 17 -39 38c0 14 5 29 15 44c46 67 116 148 172 231c28 42 40 81 40 113c0 54 -32 91 -78 91c-34 0 -69 -21 -83 -74c-4 -14 -14 -21 -25 -21c-13 0 -27 10 -27 28
c0 8 25 119 137 119c71 0 129 -53 129 -140c0 -44 -16 -95 -51 -146c-53 -77 -118 -150 -165 -217c-1 -2 -1 -3 -1 -5c0 -4 2 -7 5 -7c53 1 121 4 168 4c24 0 44 0 44 -28c0 -15 -9 -30 -26 -30zM671 141c41 0 90 26 90 237c0 79 0 241 -92 241c-68 0 -89 -91 -89 -253
c0 -120 19 -225 91 -225z" />
    <glyph glyph-name="Japan1.7575" unicode="&#x2160;" 
d="M534 40v-1c0 -21 -17 -31 -34 -31s-34 10 -34 31v1c2 112 3 236 3 357c0 108 -1 214 -3 307v1c0 22 17 33 34 33s34 -11 34 -31v-1c-1 -97 -2 -207 -2 -321s1 -232 2 -345z" />
    <glyph glyph-name="Japan1.7576" unicode="&#x2161;" 
d="M691 40v-1c0 -21 -17 -31 -34 -31c-16 0 -33 10 -33 31v1c2 112 3 236 3 357c0 108 -1 214 -3 307v1c0 22 17 33 34 33c16 0 33 -11 33 -31v-1c-1 -97 -2 -207 -2 -321s1 -232 2 -345zM376 40v-1c0 -21 -17 -31 -33 -31c-17 0 -34 10 -34 31v1c2 112 3 236 3 357
c0 108 -1 214 -3 307v1c0 22 17 33 34 33c16 0 33 -11 33 -31v-1c-1 -97 -2 -207 -2 -321s1 -232 2 -345z" />
    <glyph glyph-name="Japan1.7577" unicode="&#x2162;" 
d="M780 40v-1c0 -21 -16 -31 -33 -31s-33 10 -33 31v1c2 112 3 236 3 357c0 108 -1 214 -3 307v1c0 22 17 33 33 33c17 0 33 -11 33 -31v-1c-1 -97 -2 -207 -2 -321s1 -232 2 -345zM533 40v-1c0 -21 -16 -31 -33 -31s-33 10 -33 31v1c2 112 3 236 3 357c0 108 -1 214 -3 307
v1c0 22 17 33 33 33c17 0 33 -11 33 -31v-1c-1 -97 -2 -207 -2 -321s1 -232 2 -345zM286 40v-1c0 -21 -16 -31 -33 -31s-33 10 -33 31v1c2 112 3 236 3 357c0 108 -1 214 -3 307v1c0 22 17 33 33 33c17 0 33 -11 33 -31v-1c-1 -97 -2 -207 -2 -321s1 -232 2 -345z" />
    <glyph glyph-name="Japan1.7578" unicode="&#x2163;" 
d="M671 57c-12 -35 -40 -53 -68 -53s-57 19 -70 57c-45 134 -195 624 -195 646c0 20 16 30 32 30c13 0 27 -8 32 -25c31 -115 141 -487 179 -611c5 -15 13 -24 21 -24c9 0 17 9 23 26c35 105 141 471 183 612c5 17 18 24 30 24c17 0 34 -13 34 -33
c0 -13 -155 -513 -201 -649zM244 40v-1c0 -21 -16 -31 -33 -31s-33 10 -33 31v1c2 112 3 236 3 357c0 108 -1 214 -3 307v1c0 22 17 33 33 33c17 0 33 -11 33 -31v-1c-1 -97 -2 -207 -2 -321s1 -232 2 -345z" />
    <glyph glyph-name="Japan1.7579" unicode="&#x2164;" 
d="M568 57c-13 -35 -41 -53 -70 -53s-59 19 -73 57c-62 176 -205 632 -205 646c0 19 16 30 32 30c14 0 28 -8 33 -25c32 -115 149 -487 189 -611c5 -15 14 -24 23 -24s18 9 24 26c37 105 149 471 193 612c5 17 18 24 31 24c17 0 35 -13 35 -32c0 -11 -162 -508 -212 -650z
" />
    <glyph glyph-name="Japan1.7580" unicode="&#x2165;" 
d="M822 40v-1c0 -21 -16 -31 -33 -31s-33 10 -33 31v1c2 112 3 236 3 357c0 108 -1 214 -3 307v1c0 22 17 33 33 33c17 0 33 -11 33 -31v-1c-1 -97 -2 -207 -2 -321s1 -232 2 -345zM460 57c-12 -35 -40 -53 -67 -53c-29 0 -57 19 -70 57c-45 134 -195 624 -195 646
c0 20 16 30 32 30c13 0 27 -8 32 -25c31 -115 141 -487 179 -611c5 -15 13 -24 21 -24c9 0 17 9 23 26c35 105 140 471 182 612c5 17 18 24 30 24c17 0 35 -13 35 -33c0 -10 -154 -506 -202 -649z" />
    <glyph glyph-name="Japan1.7581" unicode="&#x2166;" 
d="M870 40v-1c0 -21 -15 -31 -30 -31c-16 0 -31 10 -31 31v1c2 112 3 236 3 357c0 108 -1 214 -3 307v1c0 22 15 33 31 33c15 0 30 -11 30 -31v-1c-1 -97 -2 -207 -2 -321s1 -232 2 -345zM686 40v-1c0 -21 -15 -31 -31 -31s-31 10 -31 31v1c2 112 3 236 3 357
c0 108 -1 214 -3 307v1c0 22 16 33 31 33c16 0 31 -11 31 -31v-1c-1 -97 -2 -207 -2 -321s1 -232 2 -345zM367 57c-10 -35 -38 -53 -66 -53c-29 0 -57 19 -68 56c-38 133 -153 630 -153 643c0 22 15 34 31 34c14 0 28 -9 32 -28c25 -116 104 -483 136 -607
c4 -16 13 -25 22 -25c8 0 17 8 22 26c29 105 110 468 140 609c4 17 17 25 31 25c15 0 31 -11 31 -30c0 -4 -118 -514 -158 -650z" />
    <glyph glyph-name="Japan1.7582" unicode="&#x2167;" 
d="M904 40v-1c0 -21 -15 -31 -29 -31c-15 0 -30 10 -30 31v1c2 112 3 236 3 357c0 108 -1 214 -3 307v1c0 22 15 33 30 33c14 0 29 -11 29 -31v-1c-1 -97 -2 -207 -2 -321s1 -232 2 -345zM749 40v-1c0 -21 -15 -31 -30 -31s-30 10 -30 31v1c2 112 3 236 3 357
c0 108 -1 214 -3 307v1c0 22 15 33 30 33s30 -11 30 -31v-1c-1 -97 -2 -207 -2 -321s1 -232 2 -345zM593 40v-1c0 -21 -15 -31 -29 -31c-15 0 -30 10 -30 31v1c2 112 3 236 3 357c0 108 -1 214 -3 307v1c0 22 15 33 30 33c14 0 29 -11 29 -31v-1c-1 -97 -2 -207 -2 -321
s1 -232 2 -345zM330 58c-9 -36 -37 -54 -65 -54s-57 19 -66 56c-30 121 -136 645 -136 647c0 19 16 30 32 30c13 0 28 -9 31 -26c22 -115 92 -496 119 -610c3 -15 11 -23 20 -23s18 9 22 26c25 104 94 468 120 608c4 18 18 26 32 26c15 0 30 -10 30 -30
c0 -1 -115 -558 -139 -650z" />
    <glyph glyph-name="Japan1.7583" unicode="&#x2168;" 
d="M858 6c-9 0 -18 5 -25 15c-208 318 -214 322 -219 322c-4 0 -7 -2 -217 -321c-7 -11 -16 -15 -25 -15c-17 0 -33 15 -33 34c0 6 2 14 7 21c141 201 227 327 227 335c0 10 -180 272 -190 286c-5 7 -8 15 -8 22c0 18 17 33 33 33c9 0 18 -4 25 -15
c170 -270 178 -271 182 -271c6 0 35 44 179 272c6 10 15 14 24 14c18 0 35 -15 35 -33c0 -7 -2 -14 -7 -21c-8 -11 -190 -275 -190 -286c0 -6 31 -51 228 -335c5 -8 8 -16 8 -23c0 -19 -17 -34 -34 -34zM241 40v-1c0 -21 -16 -31 -33 -31s-33 10 -33 31v1c2 112 3 236 3 357
c0 108 -1 214 -3 307v1c0 22 17 33 33 33c17 0 33 -11 33 -31v-1c-1 -97 -2 -207 -2 -321s1 -232 2 -345z" />
    <glyph glyph-name="Japan1.7584" unicode="&#x2169;" 
d="M822 44c0 -20 -19 -36 -38 -36c-9 0 -18 4 -25 13c-58 77 -161 206 -247 316c-5 6 -9 9 -12 9c-4 0 -8 -4 -13 -10c-84 -107 -185 -235 -246 -315c-8 -10 -17 -14 -27 -14c-18 0 -36 16 -36 34c0 7 3 15 9 22c153 186 268 328 268 337c0 11 -155 202 -221 280
c-6 7 -9 15 -9 22c0 19 17 35 35 35c9 0 18 -4 25 -14c48 -65 127 -165 202 -260c5 -6 9 -9 13 -9s8 4 12 9c73 93 152 195 199 260c7 9 16 13 25 13c18 0 36 -15 36 -34c0 -7 -2 -14 -8 -21c-46 -55 -220 -269 -220 -281c0 -3 2 -7 6 -13c90 -113 197 -239 264 -322
c6 -7 8 -14 8 -21z" />
    <glyph glyph-name="Japan1.8061" 
d="M895 53c0 -26 -21 -50 -51 -50c-34 0 -48 23 -48 49c0 33 28 48 49 48c36 0 50 -30 50 -47zM396 -1c-127 0 -222 84 -238 243c-4 43 -6 85 -6 128c0 39 2 79 5 120c14 165 109 254 239 254c128 0 221 -84 237 -243c5 -46 7 -91 7 -135c0 -106 -5 -367 -244 -367zM396 56
c174 0 180 215 180 317c0 41 -2 83 -6 121c-12 120 -76 194 -174 194c-181 0 -182 -217 -182 -313c0 -114 9 -319 182 -319z" />
    <glyph glyph-name="Japan1.8062" unicode="&#x2488;" 
d="M449 34v-1c0 -21 -18 -32 -35 -32c-16 0 -32 10 -32 30v1c1 99 5 333 5 476c0 53 -1 94 -2 111c-3 38 -15 50 -59 50c-7 0 -16 0 -25 -1h-3c-19 0 -29 16 -29 31s9 31 28 32c21 1 31 1 53 1c61 0 96 -28 99 -81c1 -16 1 -40 1 -70c0 -91 -3 -238 -3 -382
c0 -57 1 -113 2 -165zM895 53c0 -26 -21 -50 -51 -50c-34 0 -48 23 -48 49c0 33 28 48 49 48c36 0 50 -30 50 -47z" />
    <glyph glyph-name="Japan1.8063" unicode="&#x2489;" 
d="M580 12h-1c-33 1 -109 1 -186 1s-154 0 -188 -1h-2c-39 0 -60 19 -60 44c0 15 8 33 25 51c81 87 211 195 310 304c47 51 67 102 67 146c0 45 -29 128 -149 128c-63 0 -133 -29 -160 -101c-7 -18 -20 -25 -32 -25c-16 0 -32 12 -32 31c0 35 65 152 228 152
c124 0 213 -74 213 -179c0 -54 -24 -116 -80 -181c-86 -100 -213 -194 -314 -300c-1 -2 -2 -3 -2 -5c0 -4 5 -7 14 -7c109 0 263 5 348 5c27 0 39 -15 39 -31s-13 -32 -38 -32zM895 53c0 -26 -21 -50 -51 -50c-34 0 -48 23 -48 49c0 33 28 48 49 48c36 0 50 -30 50 -47z" />
    <glyph glyph-name="Japan1.8064" unicode="&#x248a;" 
d="M357 380c-21 0 -31 16 -31 31c0 14 9 28 28 28h39c82 2 135 57 135 129c0 64 -51 116 -139 116c-58 0 -108 -20 -145 -69c-7 -9 -15 -12 -23 -12c-16 0 -32 13 -32 30c0 33 85 106 201 106c112 0 201 -63 201 -172c0 -65 -36 -130 -117 -154c108 -25 159 -100 159 -194
c0 -129 -108 -224 -256 -224c-171 0 -239 108 -239 131c0 19 16 32 33 32c9 0 19 -4 26 -14c44 -63 98 -89 185 -89c107 0 186 72 186 165c0 139 -123 160 -182 160h-29zM895 53c0 -26 -21 -50 -51 -50c-34 0 -48 23 -48 49c0 33 28 48 49 48c36 0 50 -30 50 -47z" />
    <glyph glyph-name="Japan1.8065" unicode="&#x248b;" 
d="M508 33v-1c0 -20 -16 -32 -32 -32c-15 0 -30 11 -30 33c0 36 1 76 2 143c-103 -1 -247 -2 -258 -2c-54 0 -82 24 -82 58c0 19 8 41 25 64c65 87 248 324 326 426c8 10 17 14 27 14c17 0 33 -13 33 -31c0 -7 -3 -16 -10 -24c-47 -57 -261 -327 -322 -406
c-9 -11 -13 -20 -13 -28c0 -18 16 -19 79 -19c48 0 122 1 195 3c1 49 1 89 1 122c0 34 0 60 -1 80v1c0 21 15 33 31 33c14 0 28 -11 28 -34c0 -49 0 -99 -1 -201c69 2 97 3 102 3h1c18 0 29 -14 29 -29c0 -14 -10 -28 -32 -28c-13 0 -41 0 -100 -1zM895 53
c0 -26 -21 -50 -51 -50c-34 0 -48 23 -48 49c0 33 28 48 49 48c36 0 50 -30 50 -47z" />
    <glyph glyph-name="Japan1.8066" unicode="&#x248c;" 
d="M632 239c0 -123 -99 -238 -269 -238c-105 0 -213 57 -213 102c0 17 14 32 30 32c8 0 16 -4 24 -12c41 -44 101 -63 160 -63c134 0 208 89 208 179c0 81 -61 162 -187 162c-40 0 -81 -9 -115 -23c-5 -2 -20 -9 -39 -9c-26 0 -44 14 -44 45c0 7 23 199 33 250
c9 44 34 67 90 67h7c26 -1 38 -1 237 -1c20 0 31 -14 31 -29c0 -13 -10 -27 -30 -27c-30 0 -199 1 -232 1s-44 -12 -49 -35c-2 -9 -26 -173 -26 -196c0 -8 3 -11 8 -11c4 0 10 1 17 4c32 11 73 18 115 18c204 0 244 -145 244 -216zM895 53c0 -26 -21 -50 -51 -50
c-34 0 -48 23 -48 49c0 33 28 48 49 48c36 0 50 -30 50 -47z" />
    <glyph glyph-name="Japan1.8067" unicode="&#x248d;" 
d="M895 53c0 -26 -21 -50 -51 -50c-34 0 -48 23 -48 49c0 33 28 48 49 48c36 0 50 -30 50 -47zM640 221c0 -123 -94 -221 -243 -221c-137 0 -245 93 -245 239c0 255 289 499 331 499c20 0 34 -16 34 -33c0 -9 -4 -18 -15 -25c-190 -119 -260 -286 -260 -302c0 -2 0 -2 1 -2
c2 0 5 1 9 4c47 33 103 49 158 49c96 0 230 -56 230 -208zM582 219c0 99 -85 160 -183 160c-99 0 -187 -60 -187 -160s84 -164 184 -164c105 0 186 69 186 164z" />
    <glyph glyph-name="Japan1.8068" unicode="&#x248e;" 
d="M223 672h-1c-21 0 -32 14 -32 29c0 14 11 28 32 29h334c61 0 92 -28 92 -68c0 -17 -6 -35 -17 -55c-101 -176 -251 -362 -303 -566c-6 -23 -22 -34 -38 -34s-30 12 -30 32c0 5 1 10 2 15c55 199 215 398 307 568c6 12 10 22 10 30c0 15 -11 24 -36 24
c-8 0 -264 -3 -320 -4zM895 53c0 -26 -21 -50 -51 -50c-34 0 -48 23 -48 49c0 33 28 48 49 48c36 0 50 -30 50 -47z" />
    <glyph glyph-name="Japan1.8069" unicode="&#x248f;" 
d="M895 53c0 -26 -21 -50 -51 -50c-34 0 -48 23 -48 49c0 33 28 48 49 48c36 0 50 -30 50 -47zM499 407c94 -23 156 -107 156 -197c0 -135 -115 -215 -258 -215c-147 0 -257 81 -257 216c0 79 58 167 154 196c-65 19 -115 83 -115 155c0 101 90 179 218 179
c125 0 219 -65 219 -178c0 -69 -40 -133 -117 -156zM556 563c0 87 -79 128 -159 128c-100 0 -158 -64 -158 -133c0 -68 56 -125 156 -125c73 0 161 32 161 130zM595 210c0 114 -94 168 -198 168c-107 0 -197 -68 -197 -168c0 -104 91 -160 197 -160c119 0 198 66 198 160z
" />
    <glyph glyph-name="Japan1.8070" unicode="&#x2490;" 
d="M895 53c0 -26 -21 -50 -51 -50c-34 0 -48 23 -48 49c0 33 28 48 49 48c36 0 50 -30 50 -47zM306 7c-19 0 -33 14 -33 30c0 10 5 20 18 28c181 112 262 285 262 305c0 2 -1 3 -3 3s-5 -2 -10 -6c-40 -36 -101 -55 -162 -55c-91 0 -231 50 -231 208c0 150 123 223 246 223
c149 0 245 -100 245 -237c0 -248 -276 -499 -332 -499zM579 531c0 95 -83 158 -184 158c-100 0 -192 -62 -192 -165c0 -84 66 -161 183 -161c119 0 193 80 193 168z" />
    <glyph glyph-name="Japan1.8071" unicode="&#x2474;" 
d="M541 49v-1c0 -20 -17 -31 -34 -31c-16 0 -31 10 -31 29v1c1 100 4 335 4 475c0 48 0 84 -1 100c-2 38 -12 50 -51 50c-7 0 -14 0 -22 -1h-3c-21 0 -31 14 -31 29c0 33 25 33 79 33c56 0 88 -27 90 -79c1 -17 1 -44 1 -78c0 -92 -2 -238 -2 -378c0 -52 0 -102 1 -149z
M226 -44c0 -10 -10 -19 -20 -19c-27 0 -176 154 -176 443c0 290 149 443 176 443c11 0 20 -8 20 -19c0 -6 -3 -13 -11 -20c-85 -70 -146 -231 -146 -404s61 -334 146 -404c8 -7 11 -13 11 -20zM794 -63c-10 0 -20 9 -20 19c0 7 3 13 11 20c85 70 146 231 146 404
s-61 334 -146 404c-8 7 -11 14 -11 20c0 11 9 19 20 19c27 0 176 -153 176 -443c0 -289 -149 -443 -176 -443z" />
    <glyph glyph-name="Japan1.8072" unicode="&#x2475;" 
d="M658 28h-1c-28 1 -95 1 -162 1s-134 0 -164 -1h-2c-35 0 -52 17 -52 41c0 16 7 34 22 52c71 85 182 191 266 298c40 51 59 103 59 147c0 35 -19 123 -126 123c-54 0 -112 -29 -135 -100c-6 -17 -18 -25 -30 -25c-15 0 -30 12 -30 31c0 16 43 148 199 148
c107 0 186 -72 186 -175c0 -52 -20 -112 -70 -177c-80 -104 -181 -190 -266 -292c-2 -3 -3 -5 -3 -7c0 -5 5 -7 12 -7c92 0 222 5 296 5c23 0 34 -15 34 -30c0 -16 -12 -32 -33 -32zM226 -44c0 -10 -10 -19 -20 -19c-27 0 -176 154 -176 443c0 290 149 443 176 443
c11 0 20 -8 20 -19c0 -6 -3 -13 -11 -20c-85 -70 -146 -231 -146 -404s61 -334 146 -404c8 -7 11 -13 11 -20zM794 -63c-10 0 -20 9 -20 19c0 7 3 13 11 20c85 70 146 231 146 404s-61 334 -146 404c-8 7 -11 14 -11 20c0 11 9 19 20 19c27 0 176 -153 176 -443
c0 -289 -149 -443 -176 -443z" />
    <glyph glyph-name="Japan1.8073" unicode="&#x2476;" 
d="M460 393c-18 0 -26 15 -26 29s8 28 24 28h34c70 2 113 56 113 127c0 64 -49 114 -118 114c-9 0 -78 -1 -121 -67c-5 -7 -12 -11 -20 -11c-15 0 -32 13 -32 30c0 21 60 102 175 102c106 0 176 -70 176 -166c0 -65 -38 -132 -103 -154c128 -34 139 -146 139 -190
c0 -126 -95 -219 -224 -219c-133 0 -208 93 -208 126c0 18 17 32 34 32c9 0 18 -4 24 -14c37 -62 84 -86 155 -86c90 0 155 70 155 162c0 80 -39 157 -152 157h-25zM226 -44c0 -10 -10 -19 -20 -19c-27 0 -176 154 -176 443c0 290 149 443 176 443c11 0 20 -8 20 -19
c0 -6 -3 -13 -11 -20c-85 -70 -146 -231 -146 -404s61 -334 146 -404c8 -7 11 -13 11 -20zM794 -63c-10 0 -20 9 -20 19c0 7 3 13 11 20c85 70 146 231 146 404s-61 334 -146 404c-8 7 -11 14 -11 20c0 11 9 19 20 19c27 0 176 -153 176 -443c0 -289 -149 -443 -176 -443z
" />
    <glyph glyph-name="Japan1.8074" unicode="&#x2477;" 
d="M594 48v-1c0 -19 -14 -28 -29 -28s-31 10 -31 29c0 36 0 74 1 140c-90 -1 -214 -2 -223 -2c-48 0 -72 23 -72 57c0 18 7 40 22 62l283 418c6 10 15 13 23 13c16 0 32 -14 32 -31c0 -7 -2 -13 -7 -20c-41 -56 -227 -322 -280 -400c-7 -10 -10 -19 -10 -26
c0 -19 15 -20 68 -20c40 0 102 1 165 3v76c0 54 0 94 -1 122v1c0 20 15 32 30 32s29 -11 29 -33c0 -48 -1 -97 -2 -197c59 2 82 3 87 3h1c16 0 25 -14 25 -28s-9 -28 -28 -28c-11 0 -34 0 -85 -1zM226 -44c0 -10 -10 -19 -20 -19c-27 0 -176 154 -176 443
c0 290 149 443 176 443c11 0 20 -8 20 -19c0 -6 -3 -13 -11 -20c-85 -70 -146 -231 -146 -404s61 -334 146 -404c8 -7 11 -13 11 -20zM794 -63c-10 0 -20 9 -20 19c0 7 3 13 11 20c85 70 146 231 146 404s-61 334 -146 404c-8 7 -11 14 -11 20c0 11 9 19 20 19
c27 0 176 -153 176 -443c0 -289 -149 -443 -176 -443z" />
    <glyph glyph-name="Japan1.8075" unicode="&#x2478;" 
d="M713 250c0 -111 -73 -235 -237 -235c-112 0 -185 67 -185 96c0 18 17 34 33 34c7 0 14 -3 19 -10c35 -43 86 -62 135 -62c89 0 175 60 175 175c0 65 -37 160 -158 160c-34 0 -68 -9 -96 -23c-16 -7 -24 -9 -33 -9c-25 0 -45 16 -45 47c0 18 26 193 34 241
c7 43 33 67 82 67h6c22 -1 48 -1 74 -1h127c18 0 27 -14 27 -28c0 -13 -9 -27 -27 -27c-26 0 -168 1 -196 1s-39 -11 -42 -34c-5 -35 -25 -163 -27 -183c-1 -4 -1 -8 -1 -11c0 -7 2 -10 7 -10c4 0 9 1 16 4c28 11 64 18 101 18c180 0 211 -150 211 -210zM226 -44
c0 -10 -10 -19 -20 -19c-27 0 -176 154 -176 443c0 290 149 443 176 443c11 0 20 -8 20 -19c0 -6 -3 -13 -11 -20c-85 -70 -146 -231 -146 -404s61 -334 146 -404c8 -7 11 -13 11 -20zM794 -63c-10 0 -20 9 -20 19c0 7 3 13 11 20c85 70 146 231 146 404s-61 334 -146 404
c-8 7 -11 14 -11 20c0 11 9 19 20 19c27 0 176 -153 176 -443c0 -289 -149 -443 -176 -443z" />
    <glyph glyph-name="Japan1.8076" unicode="&#x2479;" 
d="M794 -63c-10 0 -20 9 -20 19c0 7 3 13 11 20c85 70 146 231 146 404s-61 334 -146 404c-8 7 -11 14 -11 20c0 11 9 19 20 19c27 0 176 -153 176 -443c0 -289 -149 -443 -176 -443zM501 16c-120 0 -217 89 -217 232c0 247 254 493 297 493c17 0 29 -16 29 -32
c0 -9 -5 -19 -14 -26c-160 -112 -228 -275 -228 -296c0 -1 0 -2 1 -2s4 2 7 5c41 32 90 47 137 47c106 0 203 -79 203 -204c0 -110 -77 -217 -215 -217zM226 -44c0 -10 -10 -19 -20 -19c-27 0 -176 154 -176 443c0 290 149 443 176 443c11 0 20 -8 20 -19
c0 -6 -3 -13 -11 -20c-85 -70 -146 -231 -146 -404s61 -334 146 -404c8 -7 11 -13 11 -20zM502 69c80 0 157 57 157 161c0 84 -58 156 -153 156c-84 0 -161 -59 -161 -159c0 -109 84 -158 157 -158z" />
    <glyph glyph-name="Japan1.8077" unicode="&#x247a;" 
d="M794 -63c-10 0 -20 9 -20 19c0 7 3 13 11 20c85 70 146 231 146 404s-61 334 -146 404c-8 7 -11 14 -11 20c0 11 9 19 20 19c27 0 176 -153 176 -443c0 -289 -149 -443 -176 -443zM354 655h-1c-18 0 -28 14 -28 28c0 29 22 29 64 29c75 0 239 -1 255 -1
c53 0 79 -28 79 -66c0 -17 -4 -35 -14 -54c-88 -172 -216 -355 -261 -555c-5 -22 -21 -33 -35 -33c-16 0 -31 12 -31 33c0 4 1 8 2 13c48 195 186 390 266 557c5 12 8 22 8 30c0 14 -9 22 -30 22c-7 0 -226 -2 -274 -3zM226 -44c0 -10 -10 -19 -20 -19
c-27 0 -176 154 -176 443c0 290 149 443 176 443c11 0 20 -8 20 -19c0 -6 -3 -13 -11 -20c-85 -70 -146 -231 -146 -404s61 -334 146 -404c8 -7 11 -13 11 -20z" />
    <glyph glyph-name="Japan1.8078" unicode="&#x247b;" 
d="M794 -63c-10 0 -20 9 -20 19c0 7 3 13 11 20c85 70 146 231 146 404s-61 334 -146 404c-8 7 -11 14 -11 20c0 11 9 19 20 19c27 0 176 -153 176 -443c0 -289 -149 -443 -176 -443zM589 415c19 -5 137 -49 137 -193c0 -148 -115 -211 -228 -211c-123 0 -224 80 -224 211
c0 101 73 171 135 192c-57 19 -101 81 -101 152c0 104 80 176 192 176c125 0 192 -84 192 -175c0 -64 -38 -130 -103 -152zM226 -44c0 -10 -10 -19 -20 -19c-27 0 -176 154 -176 443c0 290 149 443 176 443c11 0 20 -8 20 -19c0 -6 -3 -13 -11 -20
c-85 -70 -146 -231 -146 -404s61 -334 146 -404c8 -7 11 -13 11 -20zM634 567c0 74 -55 126 -134 126c-93 0 -134 -72 -134 -130c0 -68 45 -123 132 -123c135 0 136 113 136 127zM667 221c0 113 -80 165 -167 165c-95 0 -167 -70 -167 -165c0 -102 78 -157 167 -157
c98 0 167 65 167 157z" />
    <glyph glyph-name="Japan1.8079" unicode="&#x247c;" 
d="M794 -63c-10 0 -20 9 -20 19c0 7 3 13 11 20c85 70 146 231 146 404s-61 334 -146 404c-8 7 -11 14 -11 20c0 11 9 19 20 19c27 0 176 -153 176 -443c0 -289 -149 -443 -176 -443zM424 23c-17 0 -29 14 -29 30c0 9 5 19 15 26c171 117 227 288 227 300c0 2 0 2 -1 2
c-2 0 -5 -2 -9 -6c-34 -35 -86 -54 -139 -54c-101 0 -204 68 -204 205c0 124 86 217 217 217c118 0 215 -85 215 -231c0 -244 -242 -489 -292 -489zM226 -44c0 -10 -10 -19 -20 -19c-27 0 -176 154 -176 443c0 290 149 443 176 443c11 0 20 -8 20 -19c0 -6 -3 -13 -11 -20
c-85 -70 -146 -231 -146 -404s61 -334 146 -404c8 -7 11 -13 11 -20zM495 371c106 0 162 83 162 164c0 112 -91 155 -157 155c-82 0 -161 -57 -161 -161c0 -106 80 -158 156 -158z" />
    <glyph glyph-name="Japan1.8080" unicode="&#x247d;" 
d="M793 506c4 -45 6 -88 6 -132c0 -96 -3 -358 -174 -358c-91 0 -157 82 -168 238c-3 43 -5 82 -5 123c0 146 9 367 172 367c91 0 158 -83 169 -238zM625 70c95 0 115 144 115 317c0 95 0 303 -116 303c-105 0 -116 -167 -116 -305c0 -205 32 -315 117 -315zM351 49v-1
c0 -20 -16 -31 -31 -31s-29 10 -29 29v1c1 93 3 308 3 450c0 175 0 177 -38 177c-5 0 -11 0 -17 -1h-3c-17 0 -26 14 -26 28c0 32 22 32 68 32c51 0 71 -30 73 -74c1 -17 1 -44 1 -78c0 -94 -2 -242 -2 -383c0 -51 0 -102 1 -149zM226 -44c0 -10 -10 -19 -20 -19
c-27 0 -176 154 -176 443c0 290 149 443 176 443c11 0 20 -8 20 -19c0 -6 -3 -13 -11 -20c-85 -70 -146 -231 -146 -404s61 -334 146 -404c8 -7 11 -13 11 -20zM794 -63c-10 0 -20 9 -20 19c0 7 3 13 11 20c85 70 146 231 146 404s-61 334 -146 404c-8 7 -11 14 -11 20
c0 11 9 19 20 19c27 0 176 -153 176 -443c0 -289 -149 -443 -176 -443z" />
    <glyph glyph-name="Japan1.8081" unicode="&#x247e;" 
d="M703 49v-1c0 -20 -16 -31 -32 -31c-15 0 -29 10 -29 29v1c1 93 3 308 3 451c0 176 0 176 -39 176c-5 0 -11 0 -18 -1h-3c-19 0 -29 14 -29 28c0 32 25 32 72 32c52 0 73 -28 75 -72c1 -17 1 -44 1 -79c0 -94 -2 -242 -2 -383c0 -52 0 -103 1 -150zM386 49v-1
c0 -20 -16 -31 -32 -31c-15 0 -29 10 -29 29v1c1 100 4 338 4 479c0 148 -2 148 -40 148c-5 0 -11 0 -18 -1h-3c-19 0 -28 13 -28 27c0 33 26 33 71 33c52 0 73 -28 75 -72c1 -17 1 -44 1 -79c0 -94 -2 -242 -2 -383c0 -52 0 -103 1 -150zM226 -44c0 -10 -10 -19 -20 -19
c-27 0 -176 154 -176 443c0 290 149 443 176 443c11 0 20 -8 20 -19c0 -6 -3 -13 -11 -20c-85 -70 -146 -231 -146 -404s61 -334 146 -404c8 -7 11 -13 11 -20zM794 -63c-10 0 -20 9 -20 19c0 7 3 13 11 20c85 70 146 231 146 404s-61 334 -146 404c-8 7 -11 14 -11 20
c0 11 9 19 20 19c27 0 176 -153 176 -443c0 -289 -149 -443 -176 -443z" />
    <glyph glyph-name="Japan1.8082" unicode="&#x247f;" 
d="M758 27h-1c-23 1 -77 1 -131 1s-108 0 -132 -1h-2c-28 0 -43 16 -43 40c0 15 7 33 19 52c57 85 149 191 214 298c32 53 47 105 47 149c0 73 -41 123 -99 123c-41 0 -84 -28 -102 -99c-4 -15 -16 -22 -28 -22c-14 0 -28 10 -28 29c0 34 48 145 162 145
c89 0 153 -71 153 -176c0 -52 -16 -112 -56 -177c-62 -100 -147 -193 -210 -291c-2 -2 -2 -5 -2 -7c0 -5 3 -8 9 -8c71 0 169 5 229 5c21 0 30 -14 30 -29c0 -16 -10 -32 -29 -32zM351 49v-1c0 -20 -16 -31 -31 -31s-29 10 -29 29v1c1 93 3 308 3 450c0 175 0 177 -38 177
c-5 0 -11 0 -17 -1h-3c-17 0 -26 14 -26 28c0 32 22 32 68 32c51 0 71 -30 73 -74c1 -17 1 -44 1 -78c0 -94 -2 -242 -2 -383c0 -51 0 -102 1 -149zM226 -44c0 -10 -10 -19 -20 -19c-27 0 -176 154 -176 443c0 290 149 443 176 443c11 0 20 -8 20 -19c0 -6 -3 -13 -11 -20
c-85 -70 -146 -231 -146 -404s61 -334 146 -404c8 -7 11 -13 11 -20zM794 -63c-10 0 -20 9 -20 19c0 7 3 13 11 20c85 70 146 231 146 404s-61 334 -146 404c-8 7 -11 14 -11 20c0 11 9 19 20 19c27 0 176 -153 176 -443c0 -289 -149 -443 -176 -443z" />
    <glyph glyph-name="Japan1.8083" unicode="&#x2480;" 
d="M618 393l-19 -1h-1c-17 0 -27 16 -27 31c0 13 8 26 25 26h29c58 2 91 58 91 129c0 64 -35 112 -93 112c-35 0 -73 -16 -97 -66c-4 -9 -13 -13 -21 -13c-14 0 -29 11 -29 28c0 21 46 104 143 104c98 0 152 -62 152 -166c0 -67 -31 -138 -85 -152c74 -23 115 -94 115 -188
c0 -127 -70 -220 -187 -220c-133 0 -173 112 -173 127c0 18 15 30 30 30c9 0 19 -5 24 -16c28 -62 70 -84 123 -84c73 0 124 68 124 164c0 108 -51 155 -120 155h-4zM353 49v-1c0 -20 -16 -31 -31 -31s-29 10 -29 29v1c1 100 4 337 4 478c0 142 0 149 -38 149
c-5 0 -11 0 -17 -1h-3c-17 0 -26 14 -26 28c0 32 22 32 68 32c51 0 70 -30 72 -74c1 -17 1 -44 1 -78c0 -94 -2 -242 -2 -383c0 -51 0 -102 1 -149zM226 -44c0 -10 -10 -19 -20 -19c-27 0 -176 154 -176 443c0 290 149 443 176 443c11 0 20 -8 20 -19c0 -6 -3 -13 -11 -20
c-85 -70 -146 -231 -146 -404s61 -334 146 -404c8 -7 11 -13 11 -20zM794 -63c-10 0 -20 9 -20 19c0 7 3 13 11 20c85 70 146 231 146 404s-61 334 -146 404c-8 7 -11 14 -11 20c0 11 9 19 20 19c27 0 176 -153 176 -443c0 -289 -149 -443 -176 -443z" />
    <glyph glyph-name="Japan1.8084" unicode="&#x2481;" 
d="M727 50v-1c0 -19 -14 -29 -28 -29c-15 0 -30 10 -30 30c0 36 0 73 1 139c-73 -1 -163 -1 -171 -1c-46 0 -67 21 -67 54c0 32 0 32 248 483c5 10 15 14 24 14c15 0 29 -10 29 -27c0 -6 -2 -14 -7 -22c-33 -56 -181 -326 -224 -404c-6 -10 -9 -19 -9 -26
c0 -20 13 -21 53 -21c28 0 73 1 124 3c1 48 1 86 1 118s0 57 -1 76v1c0 19 14 29 28 29s28 -10 28 -30c0 -48 -1 -92 -1 -192c48 2 70 2 74 2c16 0 24 -13 24 -26c0 -14 -9 -29 -26 -29c-9 0 -31 0 -72 -1zM351 49v-1c0 -20 -16 -31 -31 -31s-29 10 -29 29v1
c1 93 3 308 3 450c0 175 0 177 -38 177c-5 0 -11 0 -17 -1h-3c-17 0 -26 14 -26 28c0 32 22 32 68 32c51 0 71 -30 73 -74c1 -17 1 -44 1 -78c0 -94 -2 -242 -2 -383c0 -51 0 -102 1 -149zM226 -44c0 -10 -10 -19 -20 -19c-27 0 -176 154 -176 443c0 290 149 443 176 443
c11 0 20 -8 20 -19c0 -6 -3 -13 -11 -20c-85 -70 -146 -231 -146 -404s61 -334 146 -404c8 -7 11 -13 11 -20zM794 -63c-10 0 -20 9 -20 19c0 7 3 13 11 20c85 70 146 231 146 404s-61 334 -146 404c-8 7 -11 14 -11 20c0 11 9 19 20 19c27 0 176 -153 176 -443
c0 -289 -149 -443 -176 -443z" />
    <glyph glyph-name="Japan1.8085" unicode="&#x2482;" 
d="M603 18c-103 0 -160 73 -160 96c0 18 16 31 32 31c8 0 17 -4 22 -13c26 -42 64 -60 102 -60c57 0 142 41 142 179c0 87 -44 157 -125 157c-29 0 -57 -9 -79 -23c-13 -8 -23 -9 -29 -9c-22 0 -42 15 -42 48c0 4 0 10 31 244c6 43 32 65 72 65h5c14 -1 29 -1 44 -1
c25 0 52 1 77 1c52 0 66 -1 66 -28c0 -13 -8 -27 -23 -27c-21 0 -137 1 -159 1s-29 -12 -32 -35c-4 -35 -22 -164 -24 -184v-8c0 -9 2 -13 6 -13c3 0 7 2 12 5c20 11 48 18 77 18c126 0 179 -103 179 -213c0 -111 -59 -231 -194 -231zM351 49v-1c0 -20 -16 -31 -31 -31
s-29 10 -29 29v1c1 93 3 308 3 450c0 175 0 177 -38 177c-5 0 -11 0 -17 -1h-3c-17 0 -26 14 -26 28c0 32 22 32 68 32c51 0 71 -30 73 -74c1 -17 1 -44 1 -78c0 -94 -2 -242 -2 -383c0 -51 0 -102 1 -149zM226 -44c0 -10 -10 -19 -20 -19c-27 0 -176 154 -176 443
c0 290 149 443 176 443c11 0 20 -8 20 -19c0 -6 -3 -13 -11 -20c-85 -70 -146 -231 -146 -404s61 -334 146 -404c8 -7 11 -13 11 -20zM794 -63c-10 0 -20 9 -20 19c0 7 3 13 11 20c85 70 146 231 146 404s-61 334 -146 404c-8 7 -11 14 -11 20c0 11 9 19 20 19
c27 0 176 -153 176 -443c0 -289 -149 -443 -176 -443z" />
    <glyph glyph-name="Japan1.8086" unicode="&#x2483;" 
d="M626 18c-94 0 -179 78 -179 232c0 78 22 161 50 229c32 77 154 263 196 263c17 0 31 -15 31 -31c0 -8 -3 -17 -12 -24c-159 -134 -193 -297 -193 -299c0 -1 1 -2 2 -2c2 0 5 3 8 6c29 29 68 43 108 43c111 0 167 -98 167 -202c0 -111 -65 -215 -178 -215zM627 70
c72 0 124 69 124 159c0 88 -50 157 -123 157c-69 0 -126 -60 -126 -155c0 -81 46 -161 125 -161zM351 49v-1c0 -20 -16 -31 -31 -31s-29 10 -29 29v1c1 93 3 308 3 450c0 175 0 177 -38 177c-5 0 -11 0 -17 -1h-3c-17 0 -26 14 -26 28c0 32 22 32 68 32c51 0 71 -30 73 -74
c1 -17 1 -44 1 -78c0 -94 -2 -242 -2 -383c0 -51 0 -102 1 -149zM226 -44c0 -10 -10 -19 -20 -19c-27 0 -176 154 -176 443c0 290 149 443 176 443c11 0 20 -8 20 -19c0 -6 -3 -13 -11 -20c-85 -70 -146 -231 -146 -404s61 -334 146 -404c8 -7 11 -13 11 -20zM794 -63
c-10 0 -20 9 -20 19c0 7 3 13 11 20c85 70 146 231 146 404s-61 334 -146 404c-8 7 -11 14 -11 20c0 11 9 19 20 19c27 0 176 -153 176 -443c0 -289 -149 -443 -176 -443z" />
    <glyph glyph-name="Japan1.8087" unicode="&#x2484;" 
d="M582 50c-4 -22 -19 -32 -33 -32c-15 0 -29 11 -29 33c0 4 0 8 1 12c39 195 155 412 214 565c5 12 7 23 7 31c0 13 -7 21 -24 21c-6 0 -181 -3 -220 -3c-17 0 -26 13 -26 27c0 29 21 29 54 29c63 0 200 -1 213 -1c43 0 65 -24 65 -61c0 -17 -5 -37 -14 -59
c-79 -191 -172 -362 -208 -562zM353 49v-1c0 -20 -16 -31 -31 -31s-29 10 -29 29v1c1 100 4 337 4 478c0 142 0 149 -38 149c-5 0 -11 0 -17 -1h-3c-17 0 -26 14 -26 28c0 32 22 32 68 32c51 0 70 -30 72 -74c1 -17 1 -44 1 -78c0 -94 -2 -242 -2 -383c0 -51 0 -102 1 -149z
M226 -44c0 -10 -10 -19 -20 -19c-27 0 -176 154 -176 443c0 290 149 443 176 443c11 0 20 -8 20 -19c0 -6 -3 -13 -11 -20c-85 -70 -146 -231 -146 -404s61 -334 146 -404c8 -7 11 -13 11 -20zM794 -63c-10 0 -20 9 -20 19c0 7 3 13 11 20c85 70 146 231 146 404
s-61 334 -146 404c-8 7 -11 14 -11 20c0 11 9 19 20 19c27 0 176 -153 176 -443c0 -289 -149 -443 -176 -443z" />
    <glyph glyph-name="Japan1.8088" unicode="&#x2485;" 
d="M700 418c73 -24 113 -101 113 -190c0 -133 -85 -212 -187 -212s-186 77 -186 212c0 85 42 163 111 189c-50 21 -82 80 -82 151c0 103 64 176 157 176c94 0 158 -72 158 -172c0 -65 -28 -131 -84 -154zM626 68c72 0 132 64 132 156c0 79 -37 164 -132 164
c-76 0 -131 -69 -131 -164c0 -102 61 -156 131 -156zM351 49v-1c0 -20 -16 -31 -31 -31s-29 10 -29 29v1c1 93 3 308 3 450c0 175 0 177 -38 177c-5 0 -11 0 -17 -1h-3c-17 0 -26 14 -26 28c0 32 22 32 68 32c51 0 71 -30 73 -74c1 -17 1 -44 1 -78c0 -94 -2 -242 -2 -383
c0 -51 0 -102 1 -149zM624 442c106 0 107 113 107 129c0 76 -51 124 -105 124c-65 0 -105 -60 -105 -128s34 -125 103 -125zM226 -44c0 -10 -10 -19 -20 -19c-27 0 -176 154 -176 443c0 290 149 443 176 443c11 0 20 -8 20 -19c0 -6 -3 -13 -11 -20
c-85 -70 -146 -231 -146 -404s61 -334 146 -404c8 -7 11 -13 11 -20zM794 -63c-10 0 -20 9 -20 19c0 7 3 13 11 20c85 70 146 231 146 404s-61 334 -146 404c-8 7 -11 14 -11 20c0 11 9 19 20 19c27 0 176 -153 176 -443c0 -289 -149 -443 -176 -443z" />
    <glyph glyph-name="Japan1.8089" unicode="&#x2486;" 
d="M586 29c-7 -6 -15 -9 -22 -9c-16 0 -30 13 -30 29c0 9 5 18 15 27c128 104 185 283 185 302c0 2 0 2 -1 2s-4 -2 -7 -6c-27 -35 -69 -53 -113 -53c-101 0 -168 90 -168 204c0 112 64 217 180 217c105 0 181 -96 181 -229c0 -153 -93 -368 -220 -484zM620 370
c83 0 130 86 130 163c0 80 -47 157 -126 157c-64 0 -126 -56 -126 -159c0 -109 62 -161 122 -161zM351 49v-1c0 -20 -16 -31 -31 -31s-29 10 -29 29v1c1 93 3 308 3 450c0 175 0 177 -38 177c-5 0 -11 0 -17 -1h-3c-17 0 -26 14 -26 28c0 32 22 32 68 32c51 0 71 -30 73 -74
c1 -17 1 -44 1 -78c0 -94 -2 -242 -2 -383c0 -51 0 -102 1 -149zM226 -44c0 -10 -10 -19 -20 -19c-27 0 -176 154 -176 443c0 290 149 443 176 443c11 0 20 -8 20 -19c0 -6 -3 -13 -11 -20c-85 -70 -146 -231 -146 -404s61 -334 146 -404c8 -7 11 -13 11 -20zM794 -63
c-10 0 -20 9 -20 19c0 7 3 13 11 20c85 70 146 231 146 404s-61 334 -146 404c-8 7 -11 14 -11 20c0 11 9 19 20 19c27 0 176 -153 176 -443c0 -289 -149 -443 -176 -443z" />
    <glyph glyph-name="Japan1.8090" unicode="&#x2487;" 
d="M673 9c-147 0 -149 231 -149 358c0 123 1 372 148 372c150 0 151 -247 151 -370c0 -147 -16 -360 -150 -360zM673 62c87 0 95 176 95 310c0 181 -15 314 -95 314c-84 0 -95 -149 -95 -317c0 -130 11 -307 95 -307zM444 27h-1c-19 1 -61 1 -104 1c-42 0 -85 0 -105 -1h-2
c-29 0 -45 15 -45 39c0 14 5 31 16 50c47 85 124 192 178 299c28 54 40 107 40 151c0 80 -40 120 -80 120c-36 0 -76 -29 -88 -97c-3 -15 -14 -22 -25 -22c-13 0 -26 10 -26 30c0 33 40 144 144 144c62 0 130 -53 130 -169c0 -66 -22 -135 -48 -185
c-53 -100 -120 -195 -174 -290c-1 -2 -2 -4 -2 -6c0 -6 6 -10 11 -10c58 0 131 4 180 4c19 0 28 -15 28 -29c0 -15 -9 -29 -27 -29zM226 -44c0 -10 -10 -19 -20 -19c-27 0 -176 154 -176 443c0 290 149 443 176 443c11 0 20 -8 20 -19c0 -6 -3 -13 -11 -20
c-85 -70 -146 -231 -146 -404s61 -334 146 -404c8 -7 11 -13 11 -20zM794 -63c-10 0 -20 9 -20 19c0 7 3 13 11 20c85 70 146 231 146 404s-61 334 -146 404c-8 7 -11 14 -11 20c0 11 9 19 20 19c27 0 176 -153 176 -443c0 -289 -149 -443 -176 -443z" />
    <glyph glyph-name="Japan1.8091" unicode="&#x3251;" 
d="M970 380c0 -259 -211 -469 -470 -469s-470 210 -470 469s211 469 470 469s470 -210 470 -469zM931 380c0 238 -193 432 -431 432s-430 -194 -430 -432s192 -431 430 -431s431 193 431 431zM478 99h-1c-18 1 -62 1 -106 1c-43 0 -87 0 -107 -1h-1c-26 0 -39 17 -39 38
c0 14 5 29 15 44c46 67 116 148 172 231c28 42 40 81 40 113c0 54 -32 91 -78 91c-34 0 -69 -21 -83 -74c-4 -14 -14 -21 -25 -21c-13 0 -27 10 -27 28c0 8 25 119 137 119c71 0 129 -53 129 -140c0 -44 -16 -95 -51 -146c-53 -77 -118 -150 -165 -217c-1 -2 -1 -3 -1 -5
c0 -4 2 -7 5 -7c53 1 121 4 168 4c24 0 44 0 44 -28c0 -15 -9 -30 -26 -30zM724 126v-1c0 -20 -15 -31 -30 -31c-14 0 -28 10 -28 29v1c1 79 3 269 3 376c0 34 -1 60 -1 71c-1 23 -7 32 -39 32h-14c-21 0 -30 14 -30 28c0 32 33 32 43 32c42 0 93 -1 96 -67
c1 -13 1 -34 1 -60c0 -72 -2 -185 -2 -294c0 -40 0 -79 1 -116z" />
    <glyph glyph-name="Japan1.8092" unicode="&#x2170;" 
d="M548 697c0 -18 -10 -49 -49 -49c-32 0 -47 21 -47 49c0 31 27 46 47 46c13 0 49 -6 49 -46zM532 36v-1c0 -20 -16 -30 -32 -30c-15 0 -31 10 -31 30c0 85 1 202 1 295c0 47 0 88 -1 116v1c0 18 16 28 32 28c15 0 31 -9 31 -27v-1c-1 -42 -2 -124 -2 -210
c0 -71 1 -145 2 -201z" />
    <glyph glyph-name="Japan1.8093" unicode="&#x2171;" 
d="M681 697c0 -31 -25 -49 -49 -49c-32 0 -47 21 -47 49c0 31 27 46 47 46c29 0 49 -22 49 -46zM415 697c0 -31 -25 -49 -49 -49c-32 0 -47 21 -47 49c0 31 27 46 47 46c29 0 49 -22 49 -46zM664 36v-1c0 -20 -16 -30 -31 -30c-16 0 -31 10 -31 30c0 85 1 202 1 295
c0 47 0 88 -1 116v1c0 18 16 28 31 28c16 0 31 -9 31 -27v-1c-1 -42 -2 -124 -2 -210c0 -71 1 -145 2 -201zM399 36v-1c0 -20 -16 -30 -32 -30c-15 0 -31 10 -31 30c0 85 1 202 1 295c0 47 0 88 -1 116v1c0 18 16 28 32 28c15 0 31 -9 31 -27v-1c-1 -42 -2 -124 -2 -210
c0 -71 1 -145 2 -201z" />
    <glyph glyph-name="Japan1.8094" unicode="&#x2172;" 
d="M781 697c0 -36 -32 -48 -48 -48c-22 0 -46 11 -46 48c0 31 26 45 46 45c28 0 48 -21 48 -45zM547 697c0 -36 -32 -48 -48 -48c-22 0 -46 11 -46 48c0 31 26 45 46 45c28 0 48 -21 48 -45zM765 36v-1c0 -20 -16 -30 -31 -30c-16 0 -31 10 -31 30c0 85 1 202 1 295
c0 47 0 88 -1 116v1c0 18 16 28 31 28c16 0 31 -9 31 -27v-1c-1 -42 -2 -124 -2 -210c0 -71 1 -145 2 -201zM313 697c0 -36 -32 -48 -48 -48c-22 0 -46 11 -46 48c0 31 26 45 46 45c28 0 48 -21 48 -45zM531 36v-1c0 -20 -16 -30 -31 -30c-16 0 -31 10 -31 30
c0 85 1 202 1 295c0 47 0 88 -1 116v1c0 18 16 28 31 28c16 0 31 -9 31 -27v-1c-1 -42 -2 -124 -2 -210c0 -71 1 -145 2 -201zM297 36v-1c0 -20 -16 -30 -31 -30c-16 0 -31 10 -31 30c0 85 1 202 1 295c0 47 0 88 -1 116v1c0 18 16 28 31 28c16 0 31 -9 31 -27v-1
c-1 -42 -2 -124 -2 -210c0 -71 1 -145 2 -201z" />
    <glyph glyph-name="Japan1.8095" unicode="&#x2173;" 
d="M322 697c0 -4 -5 -49 -50 -49c-47 0 -47 43 -47 49c0 31 28 46 48 46c21 0 49 -17 49 -46zM680 46c-11 -26 -32 -41 -53 -41c-19 0 -39 14 -50 41c-151 387 -151 388 -151 398c0 18 14 28 28 28c13 0 26 -7 31 -23c12 -37 107 -287 130 -355c4 -13 9 -19 13 -19
c5 0 10 7 14 17c24 63 108 291 130 358c5 14 16 20 27 20c16 0 32 -11 32 -28c0 -11 -68 -198 -151 -396zM305 36v-1c0 -20 -16 -30 -32 -30c-15 0 -31 10 -31 30c0 85 1 202 1 295c0 47 0 88 -1 116v1c0 18 16 28 32 28c15 0 31 -9 31 -27v-1c-1 -42 -2 -124 -2 -210
c0 -71 1 -145 2 -201z" />
    <glyph glyph-name="Japan1.8096" unicode="&#x2174;" 
d="M552 46c-11 -26 -32 -41 -53 -41c-20 0 -40 14 -51 41c-151 387 -151 388 -151 398c0 18 14 28 28 28c13 0 26 -7 31 -23c12 -37 107 -287 130 -355c4 -13 9 -19 13 -19c5 0 10 7 14 17c24 63 109 291 131 358c5 14 16 20 27 20c16 0 32 -11 32 -28
c0 -11 -68 -198 -151 -396z" />
    <glyph glyph-name="Japan1.8097" unicode="&#x2175;" 
d="M775 697c0 -31 -25 -49 -49 -49c-32 0 -47 21 -47 49c0 31 27 46 47 46c29 0 49 -22 49 -46zM758 36v-1c0 -20 -16 -30 -31 -30c-16 0 -31 10 -31 30c0 85 1 202 1 295c0 47 0 88 -1 116v1c0 18 16 28 31 28c16 0 31 -9 31 -27v-1c-1 -42 -2 -124 -2 -210
c0 -71 1 -145 2 -201zM423 46c-11 -26 -32 -41 -53 -41c-19 0 -39 14 -50 41c-151 387 -151 388 -151 398c0 18 14 28 28 28c13 0 26 -7 31 -23c12 -37 107 -287 130 -355c4 -13 9 -19 13 -19c5 0 10 7 14 17c24 63 108 291 130 358c5 14 16 20 27 20c16 0 32 -11 32 -28
c0 -11 -68 -198 -151 -396z" />
    <glyph glyph-name="Japan1.8098" unicode="&#x2176;" 
d="M863 697c0 -23 -14 -48 -48 -48c-25 0 -46 14 -46 48c0 31 26 45 46 45c29 0 48 -21 48 -45zM673 697c0 -23 -14 -48 -48 -48c-25 0 -46 14 -46 48c0 31 26 45 46 45c29 0 48 -21 48 -45zM847 36v-1c0 -20 -15 -30 -31 -30c-15 0 -30 10 -30 30c0 85 1 202 1 295
c0 47 0 88 -1 116v1c0 18 15 28 31 28c15 0 30 -9 30 -27v-1c-1 -42 -2 -124 -2 -210c0 -71 1 -145 2 -201zM657 36v-1c0 -20 -15 -30 -30 -30s-30 10 -30 30c0 85 1 202 1 295c0 47 0 88 -1 116v1c0 18 15 28 30 28s30 -9 30 -27v-1c-1 -42 -2 -124 -2 -210
c0 -71 1 -145 2 -201zM350 46c-11 -26 -32 -41 -52 -41s-40 14 -50 41c-20 51 -146 378 -146 398c0 18 14 28 28 28c12 0 25 -7 30 -23c12 -37 104 -287 126 -355c4 -13 9 -19 13 -19c5 0 10 7 14 17c23 63 103 291 125 358c5 14 16 20 27 20c15 0 31 -11 31 -28
c0 -14 -80 -234 -146 -396z" />
    <glyph glyph-name="Japan1.8099" unicode="&#x2177;" 
d="M310 46c-10 -27 -32 -40 -54 -40s-44 13 -53 40c-13 36 -126 373 -126 398c0 19 15 29 30 29c12 0 25 -7 29 -22l105 -359c4 -13 10 -19 16 -19s12 7 16 18c21 63 86 294 105 361c4 14 15 20 26 20c16 0 33 -12 33 -29c0 -10 -89 -296 -127 -397zM568 36v-1
c0 -20 -14 -30 -29 -30c-14 0 -28 10 -28 30c0 85 1 202 1 295c0 47 0 88 -1 116v1c0 18 14 28 29 28c14 0 28 -9 28 -27v-1c-1 -42 -2 -124 -2 -210c0 -71 1 -145 2 -201zM731 36v-1c0 -20 -14 -30 -29 -30c-14 0 -28 10 -28 30c0 85 1 202 1 295c0 47 0 88 -1 116v1
c0 18 14 28 29 28c14 0 28 -9 28 -27v-1c-1 -42 -2 -124 -2 -210c0 -71 1 -145 2 -201zM893 36v-1c0 -20 -14 -30 -29 -30c-14 0 -28 10 -28 30c0 85 1 202 1 295c0 47 0 88 -1 116v1c0 18 14 28 29 28c14 0 28 -9 28 -27v-1c-1 -42 -2 -124 -2 -210c0 -71 1 -145 2 -201z
M910 697c0 -15 -8 -47 -48 -47c-10 0 -45 2 -45 47c0 30 26 44 46 44c14 0 47 -7 47 -44zM584 697c0 -46 -43 -46 -47 -46c-18 0 -44 7 -44 46c0 30 26 44 45 44c18 0 46 -13 46 -44zM747 697c0 -46 -43 -46 -47 -46c-18 0 -44 7 -44 46c0 30 26 44 45 44
c18 0 46 -13 46 -44z" />
    <glyph glyph-name="Japan1.8100" unicode="&#x2178;" 
d="M315 697c0 -31 -25 -49 -49 -49c-32 0 -47 21 -47 49c0 31 27 46 47 46c29 0 49 -22 49 -46zM667 244c53 -64 120 -140 159 -187c5 -6 7 -12 7 -18c0 -17 -16 -31 -32 -31c-8 0 -16 3 -22 11c-9 11 -150 191 -154 191c-2 0 -40 -46 -155 -191c-6 -8 -14 -12 -22 -12
c-16 0 -32 15 -32 31c0 6 2 12 7 18c164 194 164 194 164 197c0 9 -122 151 -139 171c-5 6 -7 11 -7 17c0 16 16 30 32 30c7 0 14 -3 20 -10c11 -14 124 -165 132 -165c5 0 32 35 129 164c6 8 13 11 20 11c16 0 33 -15 33 -31c0 -6 -2 -12 -7 -17
c-32 -37 -137 -164 -137 -171c0 -2 2 -4 4 -8zM298 36v-1c0 -20 -16 -30 -31 -30c-16 0 -31 10 -31 30c0 85 1 202 1 295c0 47 0 88 -1 116v1c0 18 16 28 31 28c16 0 31 -9 31 -27v-1c-1 -42 -2 -124 -2 -210c0 -71 1 -145 2 -201z" />
    <glyph glyph-name="Japan1.8101" unicode="&#x2179;" 
d="M709 40c0 -16 -16 -30 -32 -30c-8 0 -16 3 -22 11s-149 190 -154 190s-146 -177 -156 -190c-6 -8 -14 -11 -22 -11c-16 0 -32 13 -32 29c0 6 2 12 7 18c38 45 107 124 160 188c3 4 5 6 5 9c0 9 -138 167 -140 170c-5 6 -7 11 -7 17c0 16 16 30 32 30c7 0 14 -3 20 -10
c17 -23 125 -164 133 -164c3 0 8 2 129 163c6 8 13 11 20 11c16 0 33 -15 33 -31c0 -6 -2 -12 -7 -17c-26 -30 -137 -162 -137 -170c0 -2 1 -5 4 -8c53 -63 120 -140 159 -187c5 -6 7 -12 7 -18z" />
    <glyph glyph-name="Japan1.8102" unicode="&#x3252;" 
d="M970 380c0 -259 -211 -469 -470 -469s-470 210 -470 469s211 469 470 469s470 -210 470 -469zM931 380c0 238 -193 432 -431 432s-430 -194 -430 -432s192 -431 430 -431s431 193 431 431zM773 99h-1c-18 1 -62 1 -106 1c-43 0 -87 0 -107 -1h-1c-26 0 -40 17 -40 39
c0 13 5 28 15 43c46 67 117 148 173 231c28 42 40 81 40 113c0 45 -22 91 -79 91c-33 0 -69 -21 -83 -74c-4 -14 -14 -21 -25 -21c-13 0 -26 10 -26 27c0 34 47 120 137 120c93 0 128 -84 128 -140c0 -44 -16 -95 -51 -146c-53 -77 -117 -150 -164 -217c-1 -2 -2 -4 -2 -6
c0 -3 2 -6 5 -6c53 1 121 4 168 4c24 0 45 0 45 -28c0 -15 -10 -30 -26 -30zM446 99h-1c-18 1 -61 1 -105 1c-43 0 -86 0 -106 -1h-1c-26 0 -40 17 -40 39c0 13 5 28 15 43c46 67 117 148 173 231c28 42 40 81 40 113c0 45 -22 91 -79 91c-33 0 -69 -21 -83 -74
c-4 -14 -14 -21 -25 -21c-13 0 -26 10 -26 27c0 34 47 120 137 120c93 0 128 -84 128 -140c0 -44 -16 -95 -51 -146c-53 -77 -117 -150 -164 -217c-1 -2 -2 -4 -2 -6c0 -3 2 -6 5 -6c53 1 120 4 167 4c24 0 44 0 44 -28c0 -15 -9 -30 -26 -30z" />
    <glyph glyph-name="Japan1.8103" unicode="&#x3253;" 
d="M970 380c0 -259 -211 -469 -470 -469s-470 210 -470 469s211 469 470 469s470 -210 470 -469zM931 380c0 238 -193 432 -431 432s-430 -194 -430 -432s192 -431 430 -431s431 193 431 431zM664 383h-16c-18 0 -27 14 -27 29c0 14 9 28 26 28h23c45 2 74 42 74 92
c0 53 -29 84 -76 84c-17 0 -51 -2 -79 -49c-4 -7 -12 -11 -19 -11c-13 0 -27 10 -27 26c0 22 43 87 124 87c93 0 129 -76 129 -136c0 -50 -25 -94 -64 -117c55 -23 85 -78 85 -149c0 -120 -69 -177 -157 -177c-97 0 -144 77 -144 103c0 18 15 28 29 28c9 0 16 -4 20 -11
c24 -46 52 -67 98 -67c61 0 100 54 100 126c-1 82 -43 114 -99 114zM453 99h-1c-18 1 -62 1 -105 1c-44 0 -87 0 -107 -1h-1c-26 0 -39 17 -39 38c0 14 5 29 15 44c46 67 116 148 172 231c28 42 40 81 40 113c0 54 -32 91 -78 91c-34 0 -69 -21 -83 -74
c-4 -14 -14 -21 -25 -21c-13 0 -27 10 -27 28c0 8 25 119 137 119c71 0 129 -53 129 -140c0 -44 -16 -95 -51 -146c-53 -77 -118 -150 -165 -217c-1 -2 -1 -3 -1 -5c0 -4 2 -7 5 -7c53 1 119 4 167 4c22 0 44 0 44 -29c0 -14 -10 -29 -26 -29z" />
    <glyph glyph-name="Japan1.8104" unicode="&#x3254;" 
d="M970 380c0 -259 -211 -469 -470 -469s-470 210 -470 469s211 469 470 469s470 -210 470 -469zM931 380c0 238 -193 432 -431 432s-430 -194 -430 -432s192 -431 430 -431s431 193 431 431zM453 99h-1c-18 1 -62 1 -105 1c-44 0 -87 0 -107 -1h-1c-26 0 -39 17 -39 38
c0 14 5 29 15 44c46 67 116 148 172 231c28 42 40 81 40 113c0 54 -32 91 -78 91c-34 0 -69 -21 -83 -74c-4 -14 -14 -21 -25 -21c-13 0 -27 10 -27 28c0 8 25 119 137 119c71 0 129 -53 129 -140c0 -44 -16 -95 -51 -146c-53 -77 -118 -150 -165 -217c-1 -2 -1 -3 -1 -5
c0 -4 2 -7 5 -7c53 1 119 4 167 4c24 0 44 0 44 -28c0 -15 -10 -30 -26 -30zM753 122v-1c0 -20 -13 -29 -25 -29c-14 0 -27 10 -27 30c0 26 1 54 1 100c-57 -1 -137 -2 -143 -2c-36 0 -54 21 -54 51c0 16 5 35 16 54c36 66 144 253 188 330c5 9 13 12 21 12
c14 0 27 -10 27 -26c0 -7 -2 -15 -7 -23c-26 -43 -149 -255 -183 -315c-4 -6 -5 -12 -5 -17c0 -15 3 -16 44 -16c24 0 60 1 96 2v53c0 37 0 62 -1 83v1c0 18 13 27 26 27s26 -9 26 -29c0 -35 -1 -62 -1 -133c33 1 53 2 56 2c16 0 26 -14 26 -27s-9 -26 -26 -26h-56
c0 -41 0 -68 1 -101z" />
    <glyph glyph-name="Japan1.8105" unicode="&#x3255;" 
d="M970 380c0 -259 -211 -469 -470 -469s-470 210 -470 469s211 469 470 469s470 -210 470 -469zM931 380c0 238 -193 432 -431 432s-430 -194 -430 -432s192 -431 430 -431s431 193 431 431zM653 92c-70 0 -135 41 -135 79c0 18 16 28 29 28c7 0 13 -3 17 -8
c23 -33 55 -47 86 -47c70 0 112 63 112 134c0 63 -34 116 -102 116c-23 0 -45 -6 -61 -16c-15 -9 -26 -9 -27 -9c-19 0 -35 11 -35 41c0 12 12 118 22 191c5 37 28 58 63 58h70c24 0 48 0 66 -1c17 -1 25 -14 25 -27s-8 -26 -25 -26s-109 1 -128 1c-16 0 -22 -9 -25 -24
c-3 -19 -15 -135 -15 -141s2 -11 6 -11c1 0 2 1 3 1c20 9 44 14 68 14c94 0 149 -76 149 -167c0 -92 -56 -186 -163 -186zM453 99h-1c-18 1 -62 1 -105 1c-44 0 -87 0 -107 -1h-1c-26 0 -39 17 -39 38c0 14 5 29 15 44c46 67 116 148 172 231c28 42 40 81 40 113
c0 54 -32 91 -78 91c-34 0 -69 -21 -83 -74c-4 -14 -14 -21 -25 -21c-13 0 -27 10 -27 28c0 8 25 119 137 119c71 0 129 -53 129 -140c0 -44 -16 -95 -51 -146c-53 -77 -118 -150 -165 -217c-1 -2 -1 -3 -1 -5c0 -4 2 -7 5 -7c53 1 119 4 167 4c22 0 44 0 44 -29
c0 -14 -10 -29 -26 -29z" />
    <glyph glyph-name="Japan1.8106" unicode="&#x3256;" 
d="M970 380c0 -259 -211 -469 -470 -469s-470 210 -470 469s211 469 470 469s470 -210 470 -469zM931 380c0 238 -193 432 -431 432s-430 -194 -430 -432s192 -431 430 -431s431 193 431 431zM668 92c-106 0 -148 90 -148 183c0 202 175 393 207 393c15 0 27 -14 27 -29
c0 -8 -3 -16 -11 -23c-105 -89 -148 -206 -148 -214c0 -1 0 -2 2 -2c1 0 2 1 4 2c23 17 51 25 78 25c80 0 137 -69 137 -163c0 -75 -36 -172 -148 -172zM453 99h-1c-18 1 -62 1 -105 1c-44 0 -87 0 -107 -1h-1c-26 0 -39 17 -39 38c0 14 5 29 15 44c46 67 116 148 172 231
c28 42 40 81 40 113c0 54 -32 91 -78 91c-34 0 -69 -21 -83 -74c-4 -14 -14 -21 -25 -21c-13 0 -27 10 -27 28c0 8 25 119 137 119c71 0 129 -53 129 -140c0 -44 -16 -95 -51 -146c-53 -77 -118 -150 -165 -217c-1 -2 -1 -3 -1 -5c0 -4 2 -7 5 -7c53 1 119 4 167 4
c22 0 44 0 44 -29c0 -14 -10 -29 -26 -29zM667 142c57 0 98 54 98 124c0 109 -80 115 -96 115c-72 0 -100 -62 -100 -116c0 -81 49 -123 98 -123z" />
    <glyph glyph-name="Japan1.8107" unicode="&#x3257;" 
d="M970 380c0 -259 -211 -469 -470 -469s-470 210 -470 469s211 469 470 469s470 -210 470 -469zM931 380c0 238 -193 432 -431 432s-430 -194 -430 -432s192 -431 430 -431s431 193 431 431zM454 99h-1c-18 1 -62 1 -105 1c-44 0 -87 0 -107 -1h-1c-26 0 -39 17 -39 38
c0 14 5 29 15 44c46 67 116 148 172 231c28 42 40 81 40 113c0 54 -32 91 -78 91c-34 0 -69 -21 -83 -74c-4 -14 -14 -21 -25 -21c-13 0 -27 10 -27 28c0 8 25 119 137 119c71 0 129 -53 129 -140c0 -44 -16 -95 -51 -146c-53 -77 -118 -150 -165 -217c-1 -2 -1 -3 -1 -5
c0 -4 2 -7 5 -7c53 1 119 4 167 4c22 0 44 0 44 -29c0 -14 -10 -29 -26 -29zM561 602h-1c-17 0 -26 14 -26 27c0 14 9 28 26 29h189c41 0 59 -25 59 -58c0 -13 -3 -28 -9 -43c-53 -127 -135 -280 -165 -436c-4 -19 -18 -28 -31 -28c-14 0 -27 10 -27 29c0 4 0 7 1 11
c32 158 123 304 174 439c3 6 4 12 4 16c0 12 -8 17 -21 17c-4 0 -142 -2 -173 -3z" />
    <glyph glyph-name="Japan1.8108" unicode="&#x3258;" 
d="M970 380c0 -259 -211 -469 -470 -469s-470 210 -470 469s211 469 470 469s470 -210 470 -469zM931 380c0 238 -193 432 -431 432s-430 -194 -430 -432s192 -431 430 -431s431 193 431 431zM749 410c48 -23 82 -79 82 -149c0 -111 -70 -172 -157 -172
c-88 0 -156 64 -156 172c0 65 35 122 82 148c-35 20 -59 66 -59 118c0 88 56 143 133 143c88 0 134 -63 134 -140c0 -50 -20 -97 -59 -120zM453 99h-1c-18 1 -62 1 -105 1c-44 0 -87 0 -107 -1h-1c-26 0 -39 17 -39 38c0 14 5 29 15 44c46 67 116 148 172 231
c28 42 40 81 40 113c0 54 -32 91 -78 91c-34 0 -69 -21 -83 -74c-4 -14 -14 -21 -25 -21c-13 0 -27 10 -27 28c0 8 25 119 137 119c71 0 129 -53 129 -140c0 -44 -16 -95 -51 -146c-53 -77 -118 -150 -165 -217c-1 -2 -1 -3 -1 -5c0 -4 2 -7 5 -7c53 1 119 4 167 4
c22 0 44 0 44 -29c0 -14 -10 -29 -26 -29zM672 430c40 0 87 27 87 99c0 55 -36 93 -85 93c-56 0 -84 -48 -84 -97c0 -50 28 -95 82 -95zM674 139c65 0 106 49 106 121c0 79 -47 123 -106 123c-69 0 -105 -61 -105 -127c0 -61 32 -117 105 -117z" />
    <glyph glyph-name="Japan1.8109" unicode="&#x3259;" 
d="M970 380c0 -259 -211 -469 -470 -469s-470 210 -470 469s211 469 470 469s470 -210 470 -469zM931 380c0 238 -193 432 -431 432s-430 -194 -430 -432s192 -431 430 -431s431 193 431 431zM625 95c-16 0 -29 13 -29 28c0 8 4 17 14 24c81 57 152 196 152 214
c0 3 -2 4 -4 4c-1 0 -2 -1 -4 -2c-23 -22 -56 -34 -89 -34c-65 0 -138 47 -138 161c0 89 51 177 151 177c86 0 151 -73 151 -188c0 -183 -162 -384 -204 -384zM453 99h-1c-18 1 -62 1 -105 1c-44 0 -87 0 -107 -1h-1c-26 0 -39 17 -39 38c0 14 5 29 15 44
c46 67 116 148 172 231c28 42 40 81 40 113c0 54 -32 91 -78 91c-34 0 -69 -21 -83 -74c-4 -14 -14 -21 -25 -21c-13 0 -27 10 -27 28c0 8 25 119 137 119c71 0 129 -53 129 -140c0 -44 -16 -95 -51 -146c-53 -77 -118 -150 -165 -217c-1 -2 -1 -3 -1 -5c0 -4 2 -7 5 -7
c53 1 119 4 167 4c22 0 44 0 44 -29c0 -14 -10 -29 -26 -29zM676 375c50 0 101 40 101 119c0 59 -33 123 -99 123c-61 0 -100 -52 -100 -122c0 -64 34 -120 98 -120z" />
    <glyph glyph-name="Japan1.8110" unicode="&#x325a;" 
d="M970 380c0 -259 -211 -469 -470 -469s-470 210 -470 469s211 469 470 469s470 -210 470 -469zM931 380c0 238 -193 432 -431 432s-430 -194 -430 -432s192 -431 430 -431s431 193 431 431zM673 90c-138 0 -140 193 -140 280c0 33 1 65 3 100c8 129 62 200 138 200
c140 0 144 -191 144 -294c0 -131 -16 -286 -145 -286zM676 141c41 0 90 26 90 237c0 79 0 241 -92 241c-85 0 -90 -155 -90 -253c0 -105 15 -225 92 -225zM326 383h-16c-18 0 -27 14 -27 29c0 14 9 28 26 28h23c45 2 75 42 75 92c0 53 -29 84 -77 84c-30 0 -55 -11 -78 -49
c-4 -7 -12 -11 -20 -11c-13 0 -27 10 -27 26c0 17 38 87 125 87c64 0 128 -45 128 -136c0 -50 -25 -94 -64 -117c55 -23 86 -78 86 -149c0 -120 -69 -177 -157 -177c-96 0 -145 77 -145 103c0 18 15 28 29 28c9 0 16 -4 20 -11c24 -46 53 -67 99 -67c61 0 100 54 100 126
c-1 82 -44 114 -100 114z" />
    <glyph glyph-name="Japan1.8111" unicode="&#x325b;" 
d="M970 380c0 -259 -211 -469 -470 -469s-470 210 -470 469s211 469 470 469s470 -210 470 -469zM931 380c0 238 -193 432 -431 432s-430 -194 -430 -432s192 -431 430 -431s431 193 431 431zM362 383h-16c-18 0 -27 14 -27 29c0 14 9 28 26 28h23c45 2 74 42 74 92
c0 53 -29 84 -76 84c-17 0 -51 -2 -79 -49c-4 -7 -12 -11 -19 -11c-13 0 -27 10 -27 26c0 22 43 87 124 87c93 0 129 -76 129 -136c0 -50 -25 -94 -64 -117c55 -23 85 -78 85 -149c0 -120 -69 -177 -157 -177c-100 0 -145 81 -145 103c0 18 16 28 30 28c8 0 16 -4 20 -11
c24 -46 52 -67 98 -67c61 0 100 54 100 126c-1 82 -43 114 -99 114zM724 126v-1c0 -20 -15 -31 -30 -31c-14 0 -28 10 -28 29v1c1 79 3 269 3 376c0 34 -1 60 -1 71c-1 23 -7 32 -39 32h-14c-21 0 -30 14 -30 28c0 32 33 32 43 32c42 0 93 -1 96 -67c1 -13 1 -34 1 -60
c0 -72 -2 -185 -2 -294c0 -40 0 -79 1 -116z" />
    <glyph glyph-name="Japan1.8112" unicode="&#x249c;" 
d="M673 156c-23 0 -56 31 -65 67c-1 2 -1 4 -3 4c-1 0 -2 -1 -3 -3c-27 -51 -91 -80 -148 -80c-97 0 -153 66 -153 133c0 50 32 100 102 123c57 19 134 33 173 40c11 2 15 5 15 12v14c0 92 -58 98 -97 98c-50 0 -88 -21 -109 -46c-6 -7 -13 -10 -21 -10c-13 0 -26 11 -26 26
c0 27 62 79 160 79c86 0 147 -40 147 -149c0 -9 0 -18 -1 -28c-3 -29 -4 -68 -4 -100c0 -87 10 -109 50 -130c7 -4 10 -11 10 -19c0 -14 -10 -31 -27 -31zM226 -44c0 -10 -10 -19 -20 -19c-27 0 -176 154 -176 443c0 290 149 443 176 443c11 0 20 -8 20 -19
c0 -6 -3 -13 -11 -20c-85 -70 -146 -231 -146 -404s61 -334 146 -404c8 -7 11 -13 11 -20zM794 -63c-10 0 -20 9 -20 19c0 7 3 13 11 20c85 70 146 231 146 404s-61 334 -146 404c-8 7 -11 14 -11 20c0 11 9 19 20 19c27 0 176 -153 176 -443c0 -289 -149 -443 -176 -443z
M453 196c83 0 137 57 137 172v12c0 8 -2 11 -9 11h-3c-162 -25 -223 -49 -223 -111c0 -42 38 -84 98 -84z" />
    <glyph glyph-name="Japan1.8113" unicode="&#x249d;" 
d="M794 -63c-10 0 -20 9 -20 19c0 7 3 13 11 20c85 70 146 231 146 404s-61 334 -146 404c-8 7 -11 14 -11 20c0 11 9 19 20 19c27 0 176 -153 176 -443c0 -289 -149 -443 -176 -443zM373 710v-1c-2 -75 -2 -180 -2 -297c0 -7 0 -11 2 -11s4 2 8 8c33 46 88 75 151 75
c121 0 212 -96 212 -233c0 -142 -91 -233 -212 -233c-55 0 -111 24 -148 71c-6 7 -8 12 -10 12c-1 0 -1 -5 -1 -16c0 -40 -1 -66 -31 -66c-13 0 -26 10 -26 34c0 101 2 316 2 476c0 80 0 146 -2 178c-1 19 12 33 28 33c15 0 29 -10 29 -30zM226 -44c0 -10 -10 -19 -20 -19
c-27 0 -176 154 -176 443c0 290 149 443 176 443c11 0 20 -8 20 -19c0 -6 -3 -13 -11 -20c-85 -70 -146 -231 -146 -404s61 -334 146 -404c8 -7 11 -13 11 -20zM530 70c89 0 157 71 157 181s-68 183 -157 183s-159 -73 -159 -183s70 -181 159 -181z" />
    <glyph glyph-name="Japan1.8114" unicode="&#x249e;" 
d="M794 -63c-10 0 -20 9 -20 19c0 7 3 13 11 20c85 70 146 231 146 404s-61 334 -146 404c-8 7 -11 14 -11 20c0 11 9 19 20 19c27 0 176 -153 176 -443c0 -289 -149 -443 -176 -443zM690 239c0 -33 -79 -94 -173 -94c-128 0 -218 96 -218 231c0 141 93 240 216 240
c82 0 156 -45 156 -83c0 -17 -13 -29 -28 -29c-8 0 -17 4 -24 13c-25 33 -65 48 -105 48c-126 0 -160 -125 -160 -185c0 -109 70 -182 162 -182c47 0 94 19 120 57c7 11 16 15 25 15c15 0 29 -14 29 -31zM226 -44c0 -10 -10 -19 -20 -19c-27 0 -176 154 -176 443
c0 290 149 443 176 443c11 0 20 -8 20 -19c0 -6 -3 -13 -11 -20c-85 -70 -146 -231 -146 -404s61 -334 146 -404c8 -7 11 -13 11 -20z" />
    <glyph glyph-name="Japan1.8115" unicode="&#x249f;" 
d="M683 25c-28 0 -41 51 -45 78c-2 11 -3 15 -4 15c-2 0 -4 -4 -7 -9c-40 -62 -103 -92 -164 -92c-121 0 -213 91 -213 233c0 137 92 233 213 233c59 0 115 -28 148 -73c5 -7 8 -12 10 -12c1 0 2 6 2 19c0 117 -1 250 -2 292c0 21 14 31 29 31c14 0 29 -10 29 -30v-2
c-2 -42 -3 -144 -3 -258c0 -309 0 -313 33 -379c3 -6 4 -11 4 -16c0 -17 -15 -30 -30 -30zM465 70c88 0 158 71 158 180c0 110 -70 182 -158 182c-93 0 -158 -70 -158 -182c0 -111 65 -180 158 -180zM226 -44c0 -10 -10 -19 -20 -19c-27 0 -176 154 -176 443
c0 290 149 443 176 443c11 0 20 -8 20 -19c0 -6 -3 -13 -11 -20c-85 -70 -146 -231 -146 -404s61 -334 146 -404c8 -7 11 -13 11 -20zM794 -63c-10 0 -20 9 -20 19c0 7 3 13 11 20c85 70 146 231 146 404s-61 334 -146 404c-8 7 -11 14 -11 20c0 11 9 19 20 19
c27 0 176 -153 176 -443c0 -289 -149 -443 -176 -443z" />
    <glyph glyph-name="Japan1.8116" unicode="&#x24a0;" 
d="M794 -63c-10 0 -20 9 -20 19c0 7 3 13 11 20c85 70 146 231 146 404s-61 334 -146 404c-8 7 -11 14 -11 20c0 11 9 19 20 19c27 0 176 -153 176 -443c0 -289 -149 -443 -176 -443zM685 240c0 -20 -63 -96 -185 -96c-119 0 -212 93 -212 231c0 143 99 238 209 238
c120 0 186 -96 186 -162c0 -37 -22 -64 -69 -65c-21 -1 -53 -1 -88 -1c-70 0 -150 1 -171 1c-9 0 -11 -4 -11 -18c0 -107 67 -172 157 -172c68 0 106 30 135 65c5 7 12 9 19 9c15 0 30 -13 30 -30zM226 -44c0 -10 -10 -19 -20 -19c-27 0 -176 154 -176 443
c0 290 149 443 176 443c11 0 20 -8 20 -19c0 -6 -3 -13 -11 -20c-85 -70 -146 -231 -146 -404s61 -334 146 -404c8 -7 11 -13 11 -20zM626 461c0 31 -33 102 -128 102c-87 0 -146 -82 -146 -120c0 -10 0 -10 117 -10c49 0 101 0 127 1c22 1 30 11 30 27z" />
    <glyph glyph-name="Japan1.8117" unicode="&#x24a1;" 
d="M446 42v1c1 28 1 77 1 129c0 105 -1 225 -1 225c0 12 -2 13 -13 13h-61c-17 0 -24 13 -24 26s8 27 24 27h61c9 0 13 0 13 11v94c3 106 79 163 152 163c22 0 43 -5 43 -28c0 -13 -10 -26 -27 -26h-12c-100 0 -101 -104 -101 -146c0 -23 0 -44 1 -57c0 -9 2 -11 12 -11h98
c16 0 24 -13 24 -26c0 -14 -8 -27 -24 -27h-100c-10 0 -10 -1 -10 -13c0 0 2 -272 2 -354c0 -21 -15 -31 -29 -32c-15 1 -29 11 -29 31zM226 -44c0 -10 -10 -19 -20 -19c-27 0 -176 154 -176 443c0 290 149 443 176 443c11 0 20 -8 20 -19c0 -6 -3 -13 -11 -20
c-85 -70 -146 -231 -146 -404s61 -334 146 -404c8 -7 11 -13 11 -20zM794 -63c-10 0 -20 9 -20 19c0 7 3 13 11 20c85 70 146 231 146 404s-61 334 -146 404c-8 7 -11 14 -11 20c0 11 9 19 20 19c27 0 176 -153 176 -443c0 -289 -149 -443 -176 -443z" />
    <glyph glyph-name="Japan1.8118" unicode="&#x24a2;" 
d="M794 -63c-10 0 -20 9 -20 19c0 7 3 13 11 20c85 70 146 231 146 404s-61 334 -146 404c-8 7 -11 14 -11 20c0 11 9 19 20 19c27 0 176 -153 176 -443c0 -289 -149 -443 -176 -443zM728 181c0 -120 -117 -174 -237 -174c-154 0 -212 83 -212 144c0 55 40 98 88 118
c7 3 10 4 10 5s-5 1 -14 4c-31 9 -56 30 -56 64c0 22 9 60 67 90c6 3 8 5 8 7c0 3 -4 5 -11 9c-36 22 -67 65 -67 121c0 101 84 155 172 155c42 0 80 -8 116 -30c4 -3 8 -4 12 -4s7 1 11 4c24 17 46 26 72 26c31 0 44 -8 44 -29c0 -13 -8 -26 -24 -26c-3 0 -5 1 -7 1
c-5 1 -10 1 -15 1c-38 0 -48 -22 -48 -27c0 -3 1 -5 2 -8c6 -15 11 -37 11 -63c0 -85 -62 -146 -171 -150c-58 -2 -119 -31 -119 -72c0 -32 45 -35 89 -35c119 0 131 -1 153 -5c71 -11 126 -56 126 -126zM226 -44c0 -10 -10 -19 -20 -19c-27 0 -176 154 -176 443
c0 290 149 443 176 443c11 0 20 -8 20 -19c0 -6 -3 -13 -11 -20c-85 -70 -146 -231 -146 -404s61 -334 146 -404c8 -7 11 -13 11 -20zM598 573c0 76 -61 106 -121 106c-61 0 -120 -38 -120 -108c0 -24 7 -107 117 -107c57 0 124 31 124 109zM671 177c0 83 -91 88 -172 88
c-137 0 -168 -76 -168 -111c0 -52 54 -95 155 -95c75 0 185 25 185 118z" />
    <glyph glyph-name="Japan1.8119" unicode="&#x24a3;" 
d="M636 47v1c1 39 1 110 1 170c0 44 0 82 -1 99c-5 81 -54 115 -107 115c-66 0 -137 -51 -139 -128c-1 -31 -1 -90 -1 -162v-95c0 -19 -14 -28 -28 -28c-15 0 -30 10 -30 28v1c2 94 4 341 4 512c0 66 0 121 -1 151v1c0 16 15 25 29 25s28 -9 28 -27c0 -36 -1 -268 -1 -289
c0 -3 1 -5 2 -5s2 1 3 3c33 44 86 66 138 66c79 0 155 -50 158 -157c1 -31 2 -103 2 -171c0 -42 0 -81 -1 -108c0 -20 -14 -29 -28 -29s-28 10 -28 27zM226 -44c0 -10 -10 -19 -20 -19c-27 0 -176 154 -176 443c0 290 149 443 176 443c11 0 20 -8 20 -19
c0 -6 -3 -13 -11 -20c-85 -70 -146 -231 -146 -404s61 -334 146 -404c8 -7 11 -13 11 -20zM794 -63c-10 0 -20 9 -20 19c0 7 3 13 11 20c85 70 146 231 146 404s-61 334 -146 404c-8 7 -11 14 -11 20c0 11 9 19 20 19c27 0 176 -153 176 -443c0 -289 -149 -443 -176 -443z
" />
    <glyph glyph-name="Japan1.8120" unicode="&#x24a4;" 
d="M794 -63c-10 0 -20 9 -20 19c0 7 3 13 11 20c85 70 146 231 146 404s-61 334 -146 404c-8 7 -11 14 -11 20c0 11 9 19 20 19c27 0 176 -153 176 -443c0 -289 -149 -443 -176 -443zM547 698c0 -26 -16 -47 -48 -47c-25 0 -46 14 -46 48c0 31 26 45 46 45
c37 0 48 -31 48 -46zM531 51v-1c0 -19 -16 -29 -31 -29c-16 0 -31 10 -31 29c0 84 1 198 1 290c0 45 0 85 -1 113v1c0 18 16 27 31 27c16 0 31 -9 31 -26v-1c-1 -41 -2 -122 -2 -206c0 -70 1 -142 2 -197zM226 -44c0 -10 -10 -19 -20 -19c-27 0 -176 154 -176 443
c0 290 149 443 176 443c11 0 20 -8 20 -19c0 -6 -3 -13 -11 -20c-85 -70 -146 -231 -146 -404s61 -334 146 -404c8 -7 11 -13 11 -20z" />
    <glyph glyph-name="Japan1.8121" unicode="&#x24a5;" 
d="M226 -44c0 -10 -10 -19 -20 -19c-27 0 -176 154 -176 443c0 290 149 443 176 443c11 0 20 -8 20 -19c0 -6 -3 -13 -11 -20c-85 -70 -146 -231 -146 -404s61 -334 146 -404c8 -7 11 -13 11 -20zM794 -63c-10 0 -20 9 -20 19c0 7 3 13 11 20c85 70 146 231 146 404
s-61 334 -146 404c-8 7 -11 14 -11 20c0 11 9 19 20 19c27 0 176 -153 176 -443c0 -289 -149 -443 -176 -443zM553 500v-1c-1 -33 -1 -68 -1 -99c0 -64 1 -115 1 -115c0 -24 1 -49 1 -86v-29c-3 -176 -147 -207 -172 -207c-18 0 -28 13 -28 27c0 12 7 24 23 26
c67 10 116 66 119 156c1 16 1 28 1 38c0 32 -2 46 -2 79c0 0 -2 69 -2 161v48c0 20 14 30 29 30s31 -10 31 -28zM568 744c0 -34 -24 -47 -48 -47c-45 0 -46 39 -46 47c0 31 26 46 46 46c24 0 48 -18 48 -46z" />
    <glyph glyph-name="Japan1.8122" unicode="&#x24a6;" 
d="M794 -63c-10 0 -20 9 -20 19c0 7 3 13 11 20c85 70 146 231 146 404s-61 334 -146 404c-8 7 -11 14 -11 20c0 11 9 19 20 19c27 0 176 -153 176 -443c0 -289 -149 -443 -176 -443zM350 50v1c3 127 4 320 4 475c0 77 0 145 -1 190c0 17 15 26 29 26s28 -9 28 -26v-1
c-2 -115 -2 -386 -2 -386c0 -11 5 -16 14 -16c8 0 21 1 223 162c7 5 13 7 19 7c16 0 28 -16 28 -32c0 -8 -3 -16 -10 -21c-57 -41 -141 -99 -192 -134c-6 -4 -8 -6 -8 -9s3 -7 8 -12c48 -49 174 -163 206 -194c8 -8 11 -17 11 -25c0 -17 -15 -32 -31 -32c-7 0 -15 3 -21 10
c-29 29 -165 167 -208 214c-10 10 -18 12 -27 12c-14 0 -15 -4 -15 -95c0 -27 1 -62 1 -112c0 -18 -14 -27 -28 -27s-28 8 -28 25zM226 -44c0 -10 -10 -19 -20 -19c-27 0 -176 154 -176 443c0 290 149 443 176 443c11 0 20 -8 20 -19c0 -6 -3 -13 -11 -20
c-85 -70 -146 -231 -146 -404s61 -334 146 -404c8 -7 11 -13 11 -20z" />
    <glyph glyph-name="Japan1.8123" unicode="&#x24a7;" 
d="M794 -63c-10 0 -20 9 -20 19c0 7 3 13 11 20c85 70 146 231 146 404s-61 334 -146 404c-8 7 -11 14 -11 20c0 11 9 19 20 19c27 0 176 -153 176 -443c0 -289 -149 -443 -176 -443zM531 55v-1c0 -20 -15 -30 -31 -31c-16 0 -31 11 -31 31v1c2 71 2 214 2 349s0 263 -2 304
v1c0 21 15 31 31 31s31 -10 31 -30v-1c-1 -46 -2 -191 -2 -339c0 -122 1 -245 2 -315zM226 -44c0 -10 -10 -19 -20 -19c-27 0 -176 154 -176 443c0 290 149 443 176 443c11 0 20 -8 20 -19c0 -6 -3 -13 -11 -20c-85 -70 -146 -231 -146 -404s61 -334 146 -404
c8 -7 11 -13 11 -20z" />
    <glyph glyph-name="Japan1.8124" unicode="&#x24a8;" 
d="M794 -63c-10 0 -20 9 -20 19c0 7 3 13 11 20c85 70 146 231 146 404s-61 334 -146 404c-8 7 -11 14 -11 20c0 11 9 19 20 19c27 0 176 -153 176 -443c0 -289 -149 -443 -176 -443zM724 176v1c1 40 1 113 1 175c0 46 0 86 -1 103c-4 76 -42 106 -83 106
c-53 0 -111 -49 -113 -115c-1 -22 -1 -69 -1 -120c0 -52 0 -108 1 -149v-1c0 -18 -14 -28 -28 -28c-13 0 -26 9 -26 28v1c1 40 1 113 1 175c0 46 0 86 -1 103c-4 76 -42 108 -83 108c-52 0 -109 -50 -112 -122c-1 -19 -1 -56 -1 -98c0 -58 0 -125 1 -166v-1
c0 -20 -13 -29 -26 -29c-15 0 -29 10 -29 30v1c2 77 3 179 3 269c0 50 0 96 -1 133v1c0 17 14 26 28 26c13 0 27 -8 27 -27c0 -3 -1 -25 -1 -27c0 -4 0 -6 1 -6s2 1 3 3c28 40 73 62 117 62c48 0 93 -27 110 -85c31 58 83 86 132 86c68 0 133 -52 135 -148
c1 -41 2 -166 2 -242c0 -55 0 -76 -28 -76c-14 0 -28 11 -28 29zM226 -44c0 -10 -10 -19 -20 -19c-27 0 -176 154 -176 443c0 290 149 443 176 443c11 0 20 -8 20 -19c0 -6 -3 -13 -11 -20c-85 -70 -146 -231 -146 -404s61 -334 146 -404c8 -7 11 -13 11 -20z" />
    <glyph glyph-name="Japan1.8125" unicode="&#x24a9;" 
d="M626 175v1c1 39 1 110 1 170c0 44 0 83 -1 100c-5 80 -52 113 -105 113c-66 0 -139 -53 -141 -131c-1 -31 -1 -88 -1 -158v-94c0 -19 -14 -28 -27 -28c-15 0 -30 10 -30 28v1c2 85 3 184 3 273c0 48 0 92 -1 130v1c0 16 15 25 30 25c14 0 27 -8 27 -26v-38
c0 -3 1 -4 1 -4c1 0 3 1 4 3c34 47 87 71 140 71c78 0 153 -53 156 -156c1 -31 2 -103 2 -171c0 -42 0 -81 -1 -108c0 -20 -14 -29 -28 -29c-15 0 -29 10 -29 27zM226 -44c0 -10 -10 -19 -20 -19c-27 0 -176 154 -176 443c0 290 149 443 176 443c11 0 20 -8 20 -19
c0 -6 -3 -13 -11 -20c-85 -70 -146 -231 -146 -404s61 -334 146 -404c8 -7 11 -13 11 -20zM794 -63c-10 0 -20 9 -20 19c0 7 3 13 11 20c85 70 146 231 146 404s-61 334 -146 404c-8 7 -11 14 -11 20c0 11 9 19 20 19c27 0 176 -153 176 -443c0 -289 -149 -443 -176 -443z
" />
    <glyph glyph-name="Japan1.8126" unicode="&#x24aa;" 
d="M794 -63c-10 0 -20 9 -20 19c0 7 3 13 11 20c85 70 146 231 146 404s-61 334 -146 404c-8 7 -11 14 -11 20c0 11 9 19 20 19c27 0 176 -153 176 -443c0 -289 -149 -443 -176 -443zM500 144c-124 0 -216 94 -216 235c0 136 92 235 216 235s216 -99 216 -235
c0 -141 -92 -235 -216 -235zM226 -44c0 -10 -10 -19 -20 -19c-27 0 -176 154 -176 443c0 290 149 443 176 443c11 0 20 -8 20 -19c0 -6 -3 -13 -11 -20c-85 -70 -146 -231 -146 -404s61 -334 146 -404c8 -7 11 -13 11 -20zM500 196c90 0 161 73 161 183
c0 111 -71 183 -161 183c-92 0 -161 -72 -161 -183c0 -110 71 -183 161 -183z" />
    <glyph glyph-name="Japan1.8127" unicode="&#x24ab;" 
d="M794 -63c-10 0 -20 9 -20 19c0 7 3 13 11 20c85 70 146 231 146 404s-61 334 -146 404c-8 7 -11 14 -11 20c0 11 9 19 20 19c27 0 176 -153 176 -443c0 -289 -149 -443 -176 -443zM320 14v1c1 76 2 230 2 371c0 116 -1 223 -2 272v1c0 21 14 32 28 32c15 0 29 -11 29 -30
v-37c0 -9 0 -10 1 -10s3 3 7 8c32 46 88 75 151 75c123 0 212 -96 212 -234c0 -141 -91 -232 -212 -232c-55 0 -111 23 -148 71c-6 7 -9 12 -10 12c-2 0 -2 -4 -2 -15c0 -25 1 -185 1 -256c0 -39 0 -62 -29 -62c-14 0 -28 10 -28 33zM226 -44c0 -10 -10 -19 -20 -19
c-27 0 -176 154 -176 443c0 290 149 443 176 443c11 0 20 -8 20 -19c0 -6 -3 -13 -11 -20c-85 -70 -146 -231 -146 -404s61 -334 146 -404c8 -7 11 -13 11 -20zM534 282c89 0 158 71 158 181s-69 183 -158 183s-159 -74 -159 -183c0 -110 70 -181 159 -181z" />
    <glyph glyph-name="Japan1.8128" unicode="&#x24ac;" 
d="M678 17v-1c0 -20 -14 -30 -28 -30c-15 0 -29 10 -29 29v1c2 81 5 255 5 297v14c-1 0 -3 -4 -5 -8c-39 -60 -101 -88 -160 -88c-121 0 -213 93 -213 233c0 138 92 233 213 233c59 0 114 -27 147 -72c5 -6 8 -11 10 -11c1 0 2 5 2 16c0 8 -1 29 -1 36c0 19 14 29 28 29
c15 0 30 -11 30 -31v-1c-2 -68 -2 -81 -2 -243c0 -88 0 -284 3 -403zM463 283c88 0 158 72 158 181c0 110 -69 181 -158 181c-94 0 -158 -69 -158 -181s65 -181 158 -181zM226 -44c0 -10 -10 -19 -20 -19c-27 0 -176 154 -176 443c0 290 149 443 176 443c11 0 20 -8 20 -19
c0 -6 -3 -13 -11 -20c-85 -70 -146 -231 -146 -404s61 -334 146 -404c8 -7 11 -13 11 -20zM794 -63c-10 0 -20 9 -20 19c0 7 3 13 11 20c85 70 146 231 146 404s-61 334 -146 404c-8 7 -11 14 -11 20c0 11 9 19 20 19c27 0 176 -153 176 -443c0 -289 -149 -443 -176 -443z
" />
    <glyph glyph-name="Japan1.8129" unicode="&#x24ad;" 
d="M794 -63c-10 0 -20 9 -20 19c0 7 3 13 11 20c85 70 146 231 146 404s-61 334 -146 404c-8 7 -11 14 -11 20c0 11 9 19 20 19c27 0 176 -153 176 -443c0 -289 -149 -443 -176 -443zM419 160v1c2 76 3 164 3 246c0 59 -1 115 -2 160v1c0 16 15 25 30 25s29 -9 29 -27
c0 -14 -1 -22 -1 -35c0 -3 1 -4 1 -4c1 0 3 1 4 3c32 46 99 66 138 66c20 0 30 -14 30 -28s-9 -27 -27 -27c-68 0 -145 -45 -147 -120c0 -22 -1 -59 -1 -105c0 -45 1 -99 1 -156c0 -19 -14 -28 -28 -28c-15 0 -30 10 -30 28zM226 -44c0 -10 -10 -19 -20 -19
c-27 0 -176 154 -176 443c0 290 149 443 176 443c11 0 20 -8 20 -19c0 -6 -3 -13 -11 -20c-85 -70 -146 -231 -146 -404s61 -334 146 -404c8 -7 11 -13 11 -20z" />
    <glyph glyph-name="Japan1.8130" unicode="&#x24ae;" 
d="M794 -63c-10 0 -20 9 -20 19c0 7 3 13 11 20c85 70 146 231 146 404s-61 334 -146 404c-8 7 -11 14 -11 20c0 11 9 19 20 19c27 0 176 -153 176 -443c0 -289 -149 -443 -176 -443zM649 270c0 -69 -57 -127 -149 -127c-105 0 -154 60 -154 86c0 17 15 29 30 29
c8 0 17 -4 23 -13c20 -31 55 -49 101 -49c51 0 93 30 93 73c0 55 -57 81 -150 123c-52 24 -76 66 -76 108c0 58 47 114 129 114c84 0 131 -47 131 -70c0 -15 -13 -28 -27 -28c-8 0 -17 4 -25 14c-15 19 -40 35 -80 35c-48 0 -74 -29 -74 -61c0 -24 15 -49 46 -65
c26 -13 69 -32 98 -47c58 -31 84 -78 84 -122zM226 -44c0 -10 -10 -19 -20 -19c-27 0 -176 154 -176 443c0 290 149 443 176 443c11 0 20 -8 20 -19c0 -6 -3 -13 -11 -20c-85 -70 -146 -231 -146 -404s61 -334 146 -404c8 -7 11 -13 11 -20z" />
    <glyph glyph-name="Japan1.8131" unicode="&#x24af;" 
d="M594 490h-83c-16 0 -16 -3 -16 -15c0 -37 -3 -139 -3 -211s0 -128 76 -128c9 0 18 1 27 2h3c15 0 23 -12 23 -25c0 -16 -4 -31 -60 -31c-123 0 -123 108 -123 151c0 62 2 182 2 229v16c0 10 -2 12 -9 12h-57c-18 0 -27 13 -27 26c0 12 9 25 27 25h56c8 0 10 0 10 9
c0 4 1 51 1 86v24c0 18 14 28 28 28s28 -10 28 -30c0 -29 -2 -106 -2 -106c0 -11 3 -11 15 -11h84c18 0 26 -13 26 -25c0 -13 -8 -26 -26 -26zM226 -44c0 -10 -10 -19 -20 -19c-27 0 -176 154 -176 443c0 290 149 443 176 443c11 0 20 -8 20 -19c0 -6 -3 -13 -11 -20
c-85 -70 -146 -231 -146 -404s61 -334 146 -404c8 -7 11 -13 11 -20zM794 -63c-10 0 -20 9 -20 19c0 7 3 13 11 20c85 70 146 231 146 404s-61 334 -146 404c-8 7 -11 14 -11 20c0 11 9 19 20 19c27 0 176 -153 176 -443c0 -289 -149 -443 -176 -443z" />
    <glyph glyph-name="Japan1.8132" unicode="&#x24b0;" 
d="M794 -63c-10 0 -20 9 -20 19c0 7 3 13 11 20c85 70 146 231 146 404s-61 334 -146 404c-8 7 -11 14 -11 20c0 11 9 19 20 19c27 0 176 -153 176 -443c0 -289 -149 -443 -176 -443zM673 582v-1c-2 -75 -3 -157 -3 -239c0 -63 5 -108 29 -144c4 -7 6 -13 6 -19
c0 -16 -14 -29 -30 -29c-31 0 -44 55 -46 70c-1 3 -1 5 -2 5s-2 -1 -3 -3c-32 -51 -91 -78 -150 -78c-78 0 -154 49 -157 157c-1 31 -2 104 -2 172c0 41 0 81 1 108c0 20 14 29 27 29c14 0 29 -10 29 -28v-1c-1 -39 -1 -111 -1 -173c0 -45 0 -84 1 -101
c5 -80 53 -113 105 -113c65 0 137 52 139 132c1 22 1 58 1 102s0 97 -1 153c0 19 14 28 28 28s29 -9 29 -27zM226 -44c0 -10 -10 -19 -20 -19c-27 0 -176 154 -176 443c0 290 149 443 176 443c11 0 20 -8 20 -19c0 -6 -3 -13 -11 -20c-85 -70 -146 -231 -146 -404
s61 -334 146 -404c8 -7 11 -13 11 -20z" />
    <glyph glyph-name="Japan1.8133" unicode="&#x24b1;" 
d="M794 -63c-10 0 -20 9 -20 19c0 7 3 13 11 20c85 70 146 231 146 404s-61 334 -146 404c-8 7 -11 14 -11 20c0 11 9 19 20 19c27 0 176 -153 176 -443c0 -289 -149 -443 -176 -443zM549 168c-11 -26 -30 -40 -50 -40c-19 0 -38 13 -48 40c-30 81 -128 335 -140 378
c-1 4 -2 8 -2 11c0 18 14 28 28 28c11 0 23 -7 28 -22c11 -36 101 -281 122 -348c4 -13 9 -19 13 -19s8 7 12 17c22 62 102 286 123 351c4 13 15 19 26 19c14 0 29 -11 29 -28c0 -16 -83 -244 -141 -387zM226 -44c0 -10 -10 -19 -20 -19c-27 0 -176 154 -176 443
c0 290 149 443 176 443c11 0 20 -8 20 -19c0 -6 -3 -13 -11 -20c-85 -70 -146 -231 -146 -404s61 -334 146 -404c8 -7 11 -13 11 -20z" />
    <glyph glyph-name="Japan1.8134" unicode="&#x24b2;" 
d="M794 -63c-10 0 -20 9 -20 19c0 7 3 13 11 20c85 70 146 231 146 404s-61 334 -146 404c-8 7 -11 14 -11 20c0 11 9 19 20 19c27 0 176 -153 176 -443c0 -289 -149 -443 -176 -443zM695 169c-11 -34 -35 -52 -59 -52c-23 0 -45 16 -54 53c-12 50 -63 255 -77 334
c-2 10 -6 15 -9 15c-4 0 -8 -5 -10 -15c-17 -87 -61 -266 -78 -332c-10 -37 -34 -56 -59 -56c-24 0 -47 19 -56 56c-21 90 -70 284 -89 370c0 2 -1 4 -1 6c0 16 15 26 29 26c12 0 24 -7 27 -22c18 -78 64 -288 80 -365c2 -12 7 -18 11 -18c5 0 9 6 12 17
c17 70 68 270 82 342c6 31 28 46 51 46c24 0 47 -16 53 -44c12 -62 64 -271 80 -345c2 -11 6 -16 10 -16s8 6 11 15c21 75 78 293 93 368c3 15 14 22 26 22c14 0 29 -10 29 -26c0 -13 -59 -241 -102 -379zM226 -44c0 -10 -10 -19 -20 -19c-27 0 -176 154 -176 443
c0 290 149 443 176 443c11 0 20 -8 20 -19c0 -6 -3 -13 -11 -20c-85 -70 -146 -231 -146 -404s61 -334 146 -404c8 -7 11 -13 11 -20z" />
    <glyph glyph-name="Japan1.8135" unicode="&#x24b3;" 
d="M794 -63c-10 0 -20 9 -20 19c0 7 3 13 11 20c85 70 146 231 146 404s-61 334 -146 404c-8 7 -11 14 -11 20c0 11 9 19 20 19c27 0 176 -153 176 -443c0 -289 -149 -443 -176 -443zM665 154c-7 0 -14 3 -20 11c-61 83 -144 187 -145 187c-4 0 -129 -165 -145 -187
c-6 -8 -13 -11 -21 -11c-15 0 -30 14 -30 30c0 6 2 11 6 17c35 44 100 121 150 184c3 4 5 6 5 9c0 7 -107 137 -132 167c-4 5 -6 11 -6 16c0 16 15 30 31 30c7 0 14 -3 19 -10c12 -17 116 -161 123 -161c8 0 121 158 122 160c5 7 12 10 19 10c15 0 31 -14 31 -30
c0 -5 -2 -11 -6 -16c-22 -27 -129 -158 -129 -166c0 -3 1 -6 4 -9c49 -62 113 -137 149 -183c4 -6 6 -11 6 -17c0 -16 -15 -31 -31 -31zM226 -44c0 -10 -10 -19 -20 -19c-27 0 -176 154 -176 443c0 290 149 443 176 443c11 0 20 -8 20 -19c0 -6 -3 -13 -11 -20
c-85 -70 -146 -231 -146 -404s61 -334 146 -404c8 -7 11 -13 11 -20z" />
    <glyph glyph-name="Japan1.8136" unicode="&#x24b4;" 
d="M794 -63c-10 0 -20 9 -20 19c0 7 3 13 11 20c85 70 146 231 146 404s-61 334 -146 404c-8 7 -11 14 -11 20c0 11 9 19 20 19c27 0 176 -153 176 -443c0 -289 -149 -443 -176 -443zM525 196c-53 -134 -102 -196 -199 -197c-20 0 -31 16 -31 31c0 14 9 27 30 27
c75 0 109 55 159 175c2 5 3 9 3 13c0 6 -2 11 -5 19c-28 75 -137 337 -160 404c-2 4 -2 8 -2 12c0 17 15 27 30 27c11 0 22 -6 27 -19c18 -52 130 -362 140 -362c8 0 105 253 140 360c5 15 16 21 28 21c15 0 30 -11 30 -29c0 -3 0 -8 -2 -12c-46 -118 -131 -327 -188 -470z
M226 -44c0 -10 -10 -19 -20 -19c-27 0 -176 154 -176 443c0 290 149 443 176 443c11 0 20 -8 20 -19c0 -6 -3 -13 -11 -20c-85 -70 -146 -231 -146 -404s61 -334 146 -404c8 -7 11 -13 11 -20z" />
    <glyph glyph-name="Japan1.8137" unicode="&#x24b5;" 
d="M366 552h-1c-15 0 -23 13 -23 25c0 13 8 26 23 26h1c23 -1 59 -1 98 -1c53 0 111 0 144 1h1c32 0 50 -19 50 -44c0 -15 -7 -32 -21 -48c-69 -76 -196 -223 -249 -281c-4 -4 -7 -9 -7 -13c0 -6 5 -11 19 -11c55 0 213 1 249 3h2c18 0 27 -12 27 -25c0 -14 -10 -28 -30 -28
h-281c-28 0 -49 18 -49 44c0 15 6 32 21 49c36 42 185 208 242 279c7 8 10 14 10 19c0 6 -6 8 -16 8zM226 -44c0 -10 -10 -19 -20 -19c-27 0 -176 154 -176 443c0 290 149 443 176 443c11 0 20 -8 20 -19c0 -6 -3 -13 -11 -20c-85 -70 -146 -231 -146 -404s61 -334 146 -404
c8 -7 11 -13 11 -20zM794 -63c-10 0 -20 9 -20 19c0 7 3 13 11 20c85 70 146 231 146 404s-61 334 -146 404c-8 7 -11 14 -11 20c0 11 9 19 20 19c27 0 176 -153 176 -443c0 -289 -149 -443 -176 -443z" />
    <glyph glyph-name="Japan1.8184" 
d="M859 -38h-1c-19 0 -65 1 -112 1c-46 0 -92 -1 -113 -1h-2c-29 0 -44 18 -44 39c0 11 5 24 15 34c44 45 131 108 189 169c27 28 38 57 38 81c0 8 -1 66 -78 66c-37 0 -78 -17 -94 -57c-5 -13 -16 -19 -26 -19c-14 0 -27 11 -27 26c0 24 47 98 151 98
c71 0 130 -39 130 -113c0 -33 -14 -70 -48 -108c-51 -57 -115 -102 -178 -155c-3 -2 -4 -5 -4 -7c0 -3 2 -6 5 -6c66 1 151 5 198 5c21 0 31 -13 31 -26c0 -14 -10 -27 -30 -27zM126 -39c-4 -4 -8 -6 -13 -6c-13 0 -27 12 -27 24c0 4 1 8 4 11c97 101 607 671 732 811
c4 4 9 6 14 6c13 0 26 -11 26 -23c0 -4 -2 -7 -5 -11c-98 -106 -598 -672 -731 -812zM270 386v-1c0 -18 -15 -27 -30 -27s-29 9 -29 26v1c1 60 3 202 3 283c0 26 -1 45 -1 54c-1 17 -12 24 -36 24c-5 0 -10 -1 -16 -1h-3c-17 0 -26 13 -26 26c0 28 22 28 72 28
c66 0 66 -49 66 -95c0 -51 -1 -134 -1 -217c0 -34 0 -69 1 -101z" />
    <glyph glyph-name="Japan1.8185" 
d="M140 -39c-4 -4 -8 -6 -13 -6c-13 0 -27 12 -27 24c0 4 1 8 4 11c97 101 607 671 732 811c4 4 9 6 14 6c12 0 25 -11 25 -23c0 -3 -2 -7 -5 -11c-98 -106 -597 -672 -730 -812zM775 -25v79c-62 0 -147 -1 -153 -1c-38 0 -58 20 -58 46c0 12 6 27 16 40
c39 51 154 191 201 251c6 8 14 11 21 11c14 0 27 -11 27 -26c0 -6 -2 -13 -8 -20c-196 -232 -198 -240 -198 -245c0 -12 15 -12 39 -12c26 0 69 0 114 1v40c0 28 0 46 -1 62v1c0 17 12 25 24 25s24 -8 24 -26c0 -26 -1 -50 -1 -101l55 2h1c15 0 23 -11 23 -23
c0 -11 -8 -23 -25 -23c-7 0 -22 -1 -54 -1c0 -32 1 -55 1 -80c0 -16 -12 -24 -24 -24s-24 8 -24 24zM270 386v-1c0 -18 -15 -27 -30 -27s-29 9 -29 26v1c1 60 3 202 3 283c0 26 -1 45 -1 54c-1 17 -12 24 -36 24c-5 0 -10 -1 -16 -1h-3c-17 0 -26 13 -26 26
c0 28 22 28 72 28c66 0 66 -49 66 -95c0 -51 -1 -134 -1 -217c0 -34 0 -69 1 -101z" />
    <glyph glyph-name="Japan1.8224" unicode="&#x24ea;" 
d="M970 380c0 -259 -211 -469 -470 -469s-470 210 -470 469s211 469 470 469s470 -210 470 -469zM931 380c0 238 -193 432 -431 432s-430 -194 -430 -432s192 -431 430 -431s431 193 431 431zM501 69c-108 0 -188 71 -201 204c-4 36 -5 71 -5 106c0 32 1 64 4 98
c12 138 92 214 202 214c109 0 187 -72 200 -205c4 -37 6 -73 6 -108c0 -169 -44 -309 -206 -309zM501 125c129 0 144 145 144 260c0 75 0 250 -144 250c-130 0 -145 -136 -145 -253c0 -112 13 -257 145 -257z" />
    <glyph glyph-name="Japan1.8225" unicode="&#x216a;" 
d="M822 40v-1c0 -21 -16 -31 -33 -31s-33 10 -33 31v1c2 112 3 236 3 357c0 108 -1 214 -3 307v1c0 22 17 33 33 33c17 0 33 -11 33 -31v-1c-1 -97 -2 -207 -2 -321s1 -232 2 -345zM628 6c-9 0 -18 5 -25 15c-209 319 -214 322 -219 322c-3 0 -7 -3 -11 -9
c-72 -108 -154 -233 -206 -312c-7 -11 -16 -15 -25 -15c-17 0 -33 15 -33 34c0 6 2 14 7 21c141 201 227 327 227 335c0 10 -180 272 -190 286c-5 7 -8 15 -8 22c0 18 17 33 33 33c9 0 18 -4 25 -15c170 -270 178 -271 182 -271c6 0 35 44 179 272c6 10 15 14 24 14
c18 0 35 -15 35 -33c0 -7 -2 -14 -7 -21c-8 -11 -190 -275 -190 -286c0 -6 8 -20 227 -335c5 -8 8 -16 8 -23c0 -19 -17 -34 -33 -34z" />
    <glyph glyph-name="Japan1.8226" unicode="&#x216b;" 
d="M870 40v-1c0 -21 -15 -31 -31 -31s-31 10 -31 31v1c2 112 3 236 3 357c0 108 -1 214 -3 307v1c0 22 16 33 31 33c16 0 31 -11 31 -31v-1c-1 -97 -2 -207 -2 -321s1 -232 2 -345zM686 40v-1c0 -21 -15 -31 -31 -31s-31 10 -31 31v1c2 112 3 236 3 357c0 108 -1 214 -3 307
v1c0 22 16 33 31 33c16 0 31 -11 31 -31v-1c-1 -97 -2 -207 -2 -321s1 -232 2 -345zM543 38c0 -19 -17 -31 -34 -31c-10 0 -20 4 -25 14c-39 77 -102 209 -158 316c-2 4 -5 7 -7 7s-4 -3 -7 -8c-52 -104 -119 -234 -158 -314c-5 -10 -15 -15 -26 -15c-17 0 -34 11 -34 30
c0 6 2 13 6 20c129 234 179 337 179 345s-143 279 -145 282c-5 9 -7 16 -7 23c0 19 17 30 34 30c10 0 20 -4 25 -14c126 -261 128 -264 133 -264c6 0 19 25 135 264c4 9 14 14 24 14c16 0 33 -11 33 -30c0 -6 -2 -13 -6 -20c-37 -66 -87 -171 -142 -272c-3 -5 -4 -9 -4 -13
c0 -15 159 -310 179 -345c4 -7 5 -13 5 -19z" />
    <glyph glyph-name="Japan1.8227" 
d="M794 -63c-10 0 -20 9 -20 19c0 7 3 13 11 20c85 70 146 231 146 404s-61 334 -146 404c-8 7 -11 14 -11 20c0 11 9 19 20 19c27 0 176 -153 176 -443c0 -289 -149 -443 -176 -443zM501 17c-111 0 -193 82 -207 237c-4 46 -6 90 -6 134c0 35 1 71 4 107
c12 160 96 247 209 247c112 0 193 -82 207 -237c4 -43 6 -86 6 -128c0 -102 -5 -360 -213 -360zM226 -44c0 -10 -10 -19 -20 -19c-27 0 -176 154 -176 443c0 290 149 443 176 443c11 0 20 -8 20 -19c0 -6 -3 -13 -11 -20c-85 -70 -146 -231 -146 -404s61 -334 146 -404
c8 -7 11 -13 11 -20zM501 72c143 0 152 199 152 314c0 95 -2 302 -152 302c-84 0 -139 -76 -149 -194c-3 -37 -5 -75 -5 -113c0 -139 18 -309 154 -309z" />
    <glyph glyph-name="Japan1.8228" 
d="M500 -1c-57 0 -107 17 -146 50c-2 1 -3 2 -5 2c-1 0 -3 0 -34 -55c-6 -11 -15 -16 -24 -16c-14 0 -26 11 -26 26c0 5 1 11 5 17c29 48 39 65 39 70c0 4 -2 8 -4 12c-38 64 -49 141 -49 273c0 37 2 74 5 112c14 165 109 254 239 254c58 0 108 -17 147 -51c2 -2 5 -3 7 -3
c5 0 22 34 31 54c5 10 13 14 21 14c14 0 27 -11 27 -25c0 -4 -1 -8 -3 -12c-38 -71 -38 -71 -38 -74c0 -2 1 -5 3 -8c37 -62 50 -144 50 -279c0 -103 -7 -361 -245 -361zM358 170c101 167 264 450 264 459c0 12 -43 60 -122 60c-176 0 -184 -197 -184 -313
c0 -128 23 -212 35 -212c2 0 5 2 7 6zM500 55c180 0 183 219 183 320c0 170 -26 202 -30 202c-2 0 -4 -2 -6 -6c-79 -140 -184 -320 -261 -451c-2 -4 -4 -7 -4 -11c0 -9 39 -54 118 -54z" />
    <glyph glyph-name="Japan1.8286" unicode="&#x2776;" 
d="M970 380c0 -259 -211 -469 -470 -469s-470 210 -470 469s211 469 470 469s470 -210 470 -469zM549 91v1c-1 44 -1 91 -1 139c0 118 2 239 2 314c0 23 0 43 -1 55c-3 52 -39 77 -95 77c-55 0 -82 0 -82 -37c0 -20 14 -40 39 -40h3c9 1 17 1 23 1c29 0 32 -7 34 -29
c1 -15 1 -56 1 -107c0 -119 -2 -297 -3 -375v-1c0 -25 20 -39 41 -39c19 0 39 13 39 41z" />
    <glyph glyph-name="Japan1.8287" unicode="&#x2777;" 
d="M970 380c0 -259 -211 -469 -470 -469s-470 210 -470 469s211 469 470 469s470 -210 470 -469zM655 78h1c28 0 43 19 43 39c0 18 -14 37 -44 37c-67 0 -188 -3 -277 -4c80 81 172 151 249 236c48 53 68 107 68 154c0 96 -79 162 -188 162c-152 0 -198 -114 -198 -137
s19 -38 38 -38c15 0 30 9 38 29c20 53 72 76 121 76c74 0 109 -48 109 -94c0 -33 -15 -72 -52 -112c-82 -89 -188 -178 -255 -249c-16 -17 -24 -36 -24 -53c0 -26 19 -46 61 -46h2c28 1 92 1 155 1s126 0 153 -1z" />
    <glyph glyph-name="Japan1.8288" unicode="&#x2778;" 
d="M970 380c0 -259 -211 -469 -470 -469s-470 210 -470 469s211 469 470 469s470 -210 470 -469zM479 376l21 1h6c20 0 134 -2 134 -120c0 -68 -59 -123 -141 -123c-68 0 -108 20 -142 68c-9 12 -20 17 -32 17c-21 0 -42 -17 -42 -39c0 -32 77 -119 212 -119
c127 0 223 79 223 195c0 89 -50 139 -108 162c48 26 74 75 74 126c0 95 -77 153 -176 153c-106 0 -180 -68 -180 -100c0 -21 20 -37 39 -37c11 0 21 5 29 15c36 47 83 51 112 51c99 0 99 -76 99 -83c0 -50 -37 -91 -99 -93h-31c-24 0 -36 -18 -36 -37c0 -18 13 -37 37 -37h1
z" />
    <glyph glyph-name="Japan1.8289" unicode="&#x2779;" 
d="M970 380c0 -259 -211 -469 -470 -469s-470 210 -470 469s211 469 470 469s470 -210 470 -469zM593 102v1l-2 105c40 0 61 1 70 1c26 0 38 18 38 35s-13 35 -36 35h-1l-71 -2c1 75 1 110 1 148c0 27 -18 40 -36 40c-19 0 -38 -13 -38 -38v-2c1 -22 1 -51 1 -93v-57
c-51 -1 -101 -2 -137 -2c-54 0 -63 1 -63 8c0 3 3 8 8 15c52 67 225 285 263 331c8 10 11 19 11 28c0 21 -19 38 -39 38c-11 0 -23 -5 -32 -17c-64 -84 -215 -279 -269 -351c-16 -21 -24 -42 -24 -61c0 -33 26 -58 79 -58c8 0 118 0 202 1c-1 -48 -1 -77 -1 -104
c0 -25 19 -37 39 -37c18 0 37 12 37 36z" />
    <glyph glyph-name="Japan1.8290" unicode="&#x277a;" 
d="M970 380c0 -259 -211 -469 -470 -469s-470 210 -470 469s211 469 470 469s470 -210 470 -469zM448 614h191c26 0 37 15 37 31c0 19 -15 39 -38 39c-162 0 -177 0 -194 1h-4c-52 0 -81 -21 -89 -65c-8 -43 -28 -197 -28 -208c0 -35 22 -49 50 -49c5 0 20 1 36 9
c26 11 58 18 89 18c81 0 142 -46 142 -122c0 -58 -42 -134 -158 -134c-45 0 -91 14 -123 48c-8 9 -17 12 -26 12c-20 0 -38 -19 -38 -40c0 -38 79 -93 185 -93c153 0 235 104 235 209c0 98 -71 188 -211 188c-37 0 -72 -6 -101 -16h-2c-1 0 -2 0 -2 2c0 1 1 2 1 3
c7 47 8 103 19 149c3 13 7 18 29 18z" />
    <glyph glyph-name="Japan1.8291" unicode="&#x277b;" 
d="M970 380c0 -259 -211 -469 -470 -469s-470 210 -470 469s211 469 470 469s470 -210 470 -469zM695 268c0 112 -92 181 -201 181c-38 0 -76 -8 -111 -26c-1 -1 -2 -1 -2 -1c-1 0 -1 0 -1 1c0 6 64 129 196 212c13 8 18 20 18 31c0 19 -14 37 -37 37
c-63 0 -199 -174 -228 -225c-33 -59 -59 -131 -59 -199c0 -133 99 -207 213 -207c110 0 212 70 212 196zM622 265c0 -86 -75 -123 -139 -123c-76 0 -141 48 -141 124c0 79 73 118 143 118c94 0 137 -59 137 -119z" />
    <glyph glyph-name="Japan1.8292" unicode="&#x277c;" 
d="M970 380c0 -259 -211 -469 -470 -469s-470 210 -470 469s211 469 470 469s470 -210 470 -469zM358 576h2c45 1 246 2 260 2c13 0 19 -3 19 -10c0 -5 -2 -10 -6 -18c-84 -156 -205 -294 -253 -467c-2 -6 -2 -11 -2 -16c0 -24 18 -38 37 -38c17 0 36 12 43 37
c45 171 161 311 248 462c10 18 15 35 15 51c0 39 -31 68 -88 68c-15 0 -171 1 -241 1h-34c-26 -1 -40 -20 -40 -38c0 -17 13 -34 40 -34z" />
    <glyph glyph-name="Japan1.8293" unicode="&#x277d;" 
d="M970 380c0 -259 -211 -469 -470 -469s-470 210 -470 469s211 469 470 469s470 -210 470 -469zM618 412c48 26 74 75 74 127c0 108 -96 159 -192 159c-110 0 -192 -68 -192 -160c0 -54 30 -102 74 -127c-98 -48 -107 -138 -107 -162c0 -120 100 -189 225 -189
c143 0 225 87 225 191c0 66 -37 130 -107 161zM620 539c0 -81 -80 -96 -123 -96c-78 0 -117 45 -117 94c0 48 42 96 120 96c89 0 120 -53 120 -94zM652 248c0 -68 -58 -119 -152 -119c-103 0 -152 58 -152 118c0 65 55 129 152 129c100 0 152 -62 152 -128z" />
    <glyph glyph-name="Japan1.8294" unicode="&#x277e;" 
d="M970 380c0 -259 -211 -469 -470 -469s-470 210 -470 469s211 469 470 469s470 -210 470 -469zM431 47c54 0 286 210 286 425c0 130 -96 204 -213 204c-114 0 -216 -72 -216 -196c0 -96 71 -182 201 -182c43 0 84 11 116 30c1 1 2 1 3 1s2 -1 2 -2c0 0 0 -1 -1 -2
c-40 -82 -118 -160 -196 -208c-15 -9 -21 -21 -21 -33c0 -19 17 -37 39 -37zM645 487c0 -69 -60 -124 -145 -124c-74 0 -140 46 -140 124c0 79 71 120 143 120c106 0 142 -68 142 -120z" />
    <glyph glyph-name="Japan1.8295" 
d="M904 40v-1c0 -21 -15 -31 -29 -31c-15 0 -30 10 -30 31v1c2 112 3 236 3 357c0 108 -1 214 -3 307v1c0 22 15 33 30 33c14 0 29 -11 29 -31v-1c-1 -97 -2 -207 -2 -321s1 -232 2 -345zM749 40v-1c0 -21 -15 -31 -30 -31s-30 10 -30 31v1c2 112 3 236 3 357
c0 108 -1 214 -3 307v1c0 22 15 33 30 33s30 -11 30 -31v-1c-1 -97 -2 -207 -2 -321s1 -232 2 -345zM593 40v-1c0 -21 -15 -31 -29 -31c-15 0 -30 10 -30 31v1c2 112 3 236 3 357c0 108 -1 214 -3 307v1c0 22 15 33 30 33c14 0 29 -11 29 -31v-1c-1 -97 -2 -207 -2 -321
s1 -232 2 -345zM482 37c0 -18 -17 -30 -33 -30c-10 0 -19 4 -24 14c-38 77 -98 210 -152 317c-2 4 -4 7 -6 7s-4 -3 -7 -8c-50 -102 -113 -235 -152 -315c-5 -11 -15 -15 -26 -15c-16 0 -33 11 -33 30c0 5 2 12 6 19c53 98 171 331 171 345c0 4 -1 7 -3 11
c-50 95 -99 206 -135 272c-4 8 -6 16 -6 22c0 20 16 31 32 31c9 0 19 -4 23 -14c77 -166 124 -265 129 -265s16 20 130 265c4 9 14 14 23 14c16 0 33 -11 33 -30c0 -6 -2 -13 -6 -20c-36 -66 -83 -171 -136 -272c-3 -5 -4 -9 -4 -13c0 -9 123 -257 171 -346
c4 -7 5 -13 5 -19z" />
    <glyph glyph-name="Japan1.8296" 
d="M826 58c-8 -36 -35 -54 -61 -54c-28 0 -55 19 -63 56c-26 126 -110 643 -110 647c0 19 16 30 32 30c13 0 25 -8 28 -25c18 -115 72 -496 94 -611c3 -15 10 -23 17 -23c8 0 15 8 19 25c21 104 75 469 97 609c3 17 16 26 30 26c15 0 30 -11 30 -30c0 -2 0 -5 -1 -8
c-31 -154 -84 -517 -112 -642zM535 40v-1c0 -21 -15 -31 -30 -31c-14 0 -29 10 -29 31v1c2 112 3 236 3 357c0 108 -1 214 -3 307v1c0 22 15 33 30 33c14 0 29 -11 29 -31v-1c-1 -97 -2 -207 -2 -321s1 -232 2 -345zM438 37c0 -19 -16 -29 -31 -29c-10 0 -20 4 -24 14
c-34 77 -84 209 -132 316c-2 4 -4 7 -6 7s-4 -3 -6 -8c-45 -103 -97 -235 -132 -314c-5 -10 -16 -16 -26 -16c-15 0 -29 9 -29 27c0 6 1 12 5 20c55 115 149 340 149 347s-118 282 -120 285c-4 9 -6 16 -6 23c0 18 15 27 29 27c10 0 20 -4 24 -14c25 -60 64 -163 106 -258
c2 -5 4 -7 6 -7s4 2 6 7c40 88 80 199 105 259c4 10 14 15 24 15c15 0 31 -11 31 -30c0 -5 -2 -12 -5 -19c-32 -66 -70 -173 -117 -274c-2 -5 -4 -9 -4 -13c0 -7 115 -273 149 -348c3 -6 4 -12 4 -17z" />
    <glyph glyph-name="Japan1.8297" 
d="M797 58c-9 -36 -37 -54 -65 -54c-29 0 -58 19 -67 56c-31 125 -137 640 -137 647c0 19 16 30 32 30c14 0 29 -9 32 -26c22 -115 92 -496 119 -610c3 -15 11 -23 20 -23s18 9 22 26c25 104 95 468 121 608c4 18 18 26 32 26c16 0 31 -10 31 -30c0 -3 0 -6 -1 -10
c-37 -154 -106 -515 -139 -640zM499 39c0 -19 -18 -32 -35 -32c-10 0 -19 4 -24 14c-38 77 -99 210 -154 317c-2 4 -4 7 -6 7s-4 -3 -7 -8c-54 -105 -115 -237 -154 -315c-5 -10 -15 -15 -25 -15c-16 0 -34 12 -34 31c0 5 2 12 6 19c39 73 173 327 173 344c0 4 -1 7 -3 11
c-50 95 -100 206 -137 272c-5 8 -7 16 -7 22c0 20 17 31 33 31c10 0 20 -4 24 -14c29 -60 76 -163 124 -258c2 -5 5 -7 7 -7c5 0 6 0 130 265c4 9 14 14 24 14c16 0 34 -11 34 -30c0 -6 -2 -13 -6 -20c-36 -66 -85 -171 -139 -272c-3 -5 -4 -8 -4 -12
c0 -10 129 -261 175 -346c4 -7 5 -13 5 -18z" />
    <glyph glyph-name="Japan1.8298" unicode="&#x217a;" 
d="M775 697c0 -31 -25 -49 -49 -49c-32 0 -47 21 -47 49c0 31 27 46 47 46c29 0 49 -22 49 -46zM758 36v-1c0 -20 -16 -30 -31 -30c-16 0 -31 10 -31 30c0 85 1 202 1 295c0 47 0 88 -1 116v1c0 18 16 28 31 28c16 0 31 -9 31 -27v-1c-1 -42 -2 -124 -2 -210
c0 -71 1 -145 2 -201zM583 39c0 -17 -16 -31 -32 -31c-8 0 -16 3 -22 11c-2 3 -146 191 -154 191c-3 0 -44 -50 -155 -191c-6 -8 -14 -12 -22 -12c-16 0 -32 15 -32 31c0 6 2 12 7 18c164 194 164 194 164 197c0 9 -122 151 -139 171c-5 6 -7 11 -7 17c0 16 16 30 32 30
c7 0 14 -3 20 -10c11 -14 124 -165 132 -165c7 0 126 159 130 164c6 8 13 11 20 11c16 0 33 -15 33 -31c0 -6 -2 -12 -7 -17c-21 -24 -137 -162 -137 -170c0 -3 1 -5 4 -9c53 -64 119 -140 158 -187c5 -6 7 -12 7 -18z" />
    <glyph glyph-name="Japan1.8299" unicode="&#x217b;" 
d="M863 697c0 -23 -14 -48 -48 -48c-25 0 -46 14 -46 48c0 31 26 45 46 45c29 0 48 -21 48 -45zM673 697c0 -23 -14 -48 -48 -48c-25 0 -46 14 -46 48c0 31 26 45 46 45c29 0 48 -21 48 -45zM847 36v-1c0 -20 -15 -30 -31 -30c-15 0 -30 10 -30 30c0 85 1 202 1 295
c0 47 0 88 -1 116v1c0 18 15 28 31 28c15 0 30 -9 30 -27v-1c-1 -42 -2 -124 -2 -210c0 -71 1 -145 2 -201zM657 36v-1c0 -20 -15 -30 -30 -30s-30 10 -30 30c0 85 1 202 1 295c0 47 0 88 -1 116v1c0 18 15 28 30 28s30 -9 30 -27v-1c-1 -42 -2 -124 -2 -210
c0 -71 1 -145 2 -201zM510 39c0 -17 -16 -31 -32 -31c-7 0 -15 3 -21 11c-121 163 -149 191 -149 191c-2 0 -4 -2 -7 -6c-38 -47 -128 -166 -143 -185c-6 -8 -14 -12 -21 -12c-16 0 -32 15 -32 31c0 6 2 12 7 18c36 45 101 123 153 188c3 4 5 6 5 9c0 10 -125 159 -135 171
c-5 5 -7 11 -7 17c0 16 16 30 32 30c7 0 14 -3 20 -10c23 -32 121 -165 128 -165s124 162 125 164c6 8 13 11 20 11c16 0 31 -15 31 -31c0 -6 -2 -12 -6 -17c-27 -33 -133 -164 -133 -170c0 -2 2 -5 5 -9c51 -64 115 -140 153 -187c5 -6 7 -12 7 -18z" />
    <glyph glyph-name="Japan1.8300" 
d="M910 697c0 -15 -8 -47 -48 -47c-10 0 -45 2 -45 47c0 30 26 44 46 44c14 0 47 -7 47 -44zM747 697c0 -46 -43 -46 -47 -46c-18 0 -44 7 -44 46c0 30 26 44 45 44c18 0 46 -13 46 -44zM584 697c0 -46 -43 -46 -47 -46c-18 0 -44 7 -44 46c0 30 26 44 45 44
c18 0 46 -13 46 -44zM893 36v-1c0 -20 -14 -30 -29 -30c-14 0 -28 10 -28 30c0 85 1 202 1 295c0 47 0 88 -1 116v1c0 18 14 28 29 28c14 0 28 -9 28 -27v-1c-1 -42 -2 -124 -2 -210c0 -71 1 -145 2 -201zM731 36v-1c0 -20 -14 -30 -29 -30c-14 0 -28 10 -28 30
c0 85 1 202 1 295c0 47 0 88 -1 116v1c0 18 14 28 29 28c14 0 28 -9 28 -27v-1c-1 -42 -2 -124 -2 -210c0 -71 1 -145 2 -201zM568 36v-1c0 -20 -14 -30 -29 -30c-14 0 -28 10 -28 30c0 85 1 202 1 295c0 47 0 88 -1 116v1c0 18 14 28 29 28c14 0 28 -9 28 -27v-1
c-1 -42 -2 -124 -2 -210c0 -71 1 -145 2 -201zM443 35c0 -16 -15 -28 -30 -28c-8 0 -15 3 -21 11c-133 190 -134 190 -136 190c-7 0 -129 -177 -138 -190c-5 -8 -13 -11 -20 -11c-15 0 -31 13 -31 29c0 6 2 12 7 18c139 184 144 192 144 198c0 4 -89 129 -123 172
c-5 6 -7 12 -7 18c0 16 16 30 31 30c7 0 14 -3 19 -11c2 -2 111 -166 118 -166c3 0 6 2 115 165c5 8 12 11 19 11c15 0 30 -14 30 -30c0 -6 -2 -12 -6 -18c-30 -38 -121 -164 -121 -171c0 -8 128 -177 143 -197c5 -7 7 -14 7 -20z" />
    <glyph glyph-name="Japan1.8301" 
d="M555 697c0 -1 -1 -48 -49 -48c-46 0 -46 45 -46 48c0 31 27 46 47 46c29 0 48 -22 48 -46zM825 46c-10 -27 -32 -40 -54 -40c-21 0 -43 13 -52 40c-27 77 -123 380 -123 398c0 19 14 29 29 29c12 0 24 -7 28 -22c10 -37 83 -291 103 -359c4 -12 10 -18 16 -18s12 6 16 17
c21 63 85 294 104 361c4 14 15 20 26 20c16 0 32 -11 32 -29c0 -13 -88 -297 -125 -397zM537 36v-1c0 -20 -14 -30 -29 -30c-14 0 -28 10 -28 30c0 85 1 202 1 295c0 47 0 88 -1 116v1c0 18 14 28 29 28c14 0 28 -9 28 -27v-1c-1 -42 -2 -124 -2 -210c0 -71 1 -145 2 -201z
M422 35c0 -16 -15 -28 -30 -28c-8 0 -16 3 -21 11c-26 37 -88 128 -129 185c-2 3 -4 5 -5 5c-2 0 -4 -2 -7 -6c-35 -47 -116 -166 -130 -185c-6 -8 -13 -11 -21 -11c-15 0 -30 13 -30 29c0 6 2 13 7 19c143 195 143 195 143 199c0 5 -87 126 -122 171c-5 6 -7 13 -7 18
c0 17 15 30 30 30c7 0 14 -4 19 -11c11 -17 111 -165 118 -165c3 0 18 22 113 164c5 8 12 11 20 11c15 0 30 -13 30 -30c0 -6 -1 -12 -6 -18c-2 -2 -121 -160 -121 -171c0 -3 0 -5 142 -197c5 -7 7 -13 7 -20z" />
    <glyph glyph-name="Japan1.8302" 
d="M780 46c-11 -26 -31 -41 -52 -41c-19 0 -39 14 -50 41c-3 7 -147 377 -147 398c0 18 14 28 29 28c12 0 25 -7 30 -23c12 -37 104 -287 126 -355c4 -13 9 -19 13 -19s9 7 13 17c24 63 105 291 127 358c5 14 16 20 27 20c16 0 32 -11 32 -28c0 -9 -60 -182 -148 -396z
M488 39c0 -16 -17 -31 -33 -31c-7 0 -15 3 -21 11c-2 3 -142 191 -150 191c-2 0 -4 -2 -7 -6c-38 -47 -128 -166 -143 -185c-6 -8 -14 -12 -22 -12c-16 0 -32 15 -32 31c0 6 2 12 7 18c36 45 103 123 155 188c3 4 5 6 5 9c0 6 -99 127 -136 171c-5 5 -7 11 -7 17
c0 16 16 30 32 30c7 0 14 -3 20 -10c88 -118 125 -165 129 -165s62 77 125 164c6 8 13 11 20 11c16 0 33 -15 33 -31c0 -6 -2 -12 -7 -17c-2 -2 -134 -160 -134 -170c0 -3 2 -5 5 -9c51 -64 116 -140 154 -187c5 -6 7 -12 7 -18z" />
  </font>
</defs>
</svg>
